G04 #@! TF.GenerationSoftware,KiCad,Pcbnew,8.0.0-8.0.0-1~ubuntu22.04.1*
G04 #@! TF.CreationDate,2024-03-02T20:13:00+07:00*
G04 #@! TF.ProjectId,FC_ESC_STM32F405RG_26x26,46435f45-5343-45f5-9354-4d3332463430,rev?*
G04 #@! TF.SameCoordinates,Original*
G04 #@! TF.FileFunction,Paste,Top*
G04 #@! TF.FilePolarity,Positive*
%FSLAX46Y46*%
G04 Gerber Fmt 4.6, Leading zero omitted, Abs format (unit mm)*
G04 Created by KiCad (PCBNEW 8.0.0-8.0.0-1~ubuntu22.04.1) date 2024-03-02 20:13:00*
%MOMM*%
%LPD*%
G01*
G04 APERTURE LIST*
G04 Aperture macros list*
%AMRoundRect*
0 Rectangle with rounded corners*
0 $1 Rounding radius*
0 $2 $3 $4 $5 $6 $7 $8 $9 X,Y pos of 4 corners*
0 Add a 4 corners polygon primitive as box body*
4,1,4,$2,$3,$4,$5,$6,$7,$8,$9,$2,$3,0*
0 Add four circle primitives for the rounded corners*
1,1,$1+$1,$2,$3*
1,1,$1+$1,$4,$5*
1,1,$1+$1,$6,$7*
1,1,$1+$1,$8,$9*
0 Add four rect primitives between the rounded corners*
20,1,$1+$1,$2,$3,$4,$5,0*
20,1,$1+$1,$4,$5,$6,$7,0*
20,1,$1+$1,$6,$7,$8,$9,0*
20,1,$1+$1,$8,$9,$2,$3,0*%
G04 Aperture macros list end*
%ADD10R,0.900000X0.800000*%
%ADD11RoundRect,0.250000X1.100000X-0.412500X1.100000X0.412500X-1.100000X0.412500X-1.100000X-0.412500X0*%
%ADD12RoundRect,0.160000X-0.160000X0.197500X-0.160000X-0.197500X0.160000X-0.197500X0.160000X0.197500X0*%
%ADD13RoundRect,0.155000X-0.155000X0.212500X-0.155000X-0.212500X0.155000X-0.212500X0.155000X0.212500X0*%
%ADD14R,3.000000X3.000000*%
%ADD15R,2.500000X1.500000*%
%ADD16RoundRect,0.155000X-0.212500X-0.155000X0.212500X-0.155000X0.212500X0.155000X-0.212500X0.155000X0*%
%ADD17RoundRect,0.217500X-0.217500X-0.217500X0.217500X-0.217500X0.217500X0.217500X-0.217500X0.217500X0*%
%ADD18RoundRect,0.062500X-0.375000X-0.062500X0.375000X-0.062500X0.375000X0.062500X-0.375000X0.062500X0*%
%ADD19RoundRect,0.062500X-0.062500X-0.375000X0.062500X-0.375000X0.062500X0.375000X-0.062500X0.375000X0*%
%ADD20RoundRect,0.160000X0.160000X-0.197500X0.160000X0.197500X-0.160000X0.197500X-0.160000X-0.197500X0*%
%ADD21R,0.350000X0.500000*%
%ADD22RoundRect,0.250000X-0.412500X-1.100000X0.412500X-1.100000X0.412500X1.100000X-0.412500X1.100000X0*%
%ADD23RoundRect,0.250000X-0.412500X-0.650000X0.412500X-0.650000X0.412500X0.650000X-0.412500X0.650000X0*%
%ADD24RoundRect,0.155000X0.155000X-0.212500X0.155000X0.212500X-0.155000X0.212500X-0.155000X-0.212500X0*%
%ADD25RoundRect,0.300000X-0.300000X-0.300000X0.300000X-0.300000X0.300000X0.300000X-0.300000X0.300000X0*%
%ADD26R,0.740000X2.400000*%
%ADD27R,0.450000X1.380000*%
%ADD28R,1.650000X1.300000*%
%ADD29R,1.425000X1.550000*%
%ADD30RoundRect,0.075000X-0.700000X-0.075000X0.700000X-0.075000X0.700000X0.075000X-0.700000X0.075000X0*%
%ADD31RoundRect,0.075000X-0.075000X-0.700000X0.075000X-0.700000X0.075000X0.700000X-0.075000X0.700000X0*%
%ADD32RoundRect,0.250000X0.350000X0.250000X-0.350000X0.250000X-0.350000X-0.250000X0.350000X-0.250000X0*%
%ADD33R,0.800000X0.900000*%
%ADD34RoundRect,0.160000X0.197500X0.160000X-0.197500X0.160000X-0.197500X-0.160000X0.197500X-0.160000X0*%
%ADD35RoundRect,0.160000X0.160000X-0.222500X0.160000X0.222500X-0.160000X0.222500X-0.160000X-0.222500X0*%
%ADD36RoundRect,0.155000X0.212500X0.155000X-0.212500X0.155000X-0.212500X-0.155000X0.212500X-0.155000X0*%
%ADD37RoundRect,0.230000X-0.375000X0.230000X-0.375000X-0.230000X0.375000X-0.230000X0.375000X0.230000X0*%
%ADD38RoundRect,0.150000X-0.150000X0.825000X-0.150000X-0.825000X0.150000X-0.825000X0.150000X0.825000X0*%
%ADD39RoundRect,0.300000X0.300000X0.300000X-0.300000X0.300000X-0.300000X-0.300000X0.300000X-0.300000X0*%
%ADD40RoundRect,0.020000X0.180000X-0.575000X0.180000X0.575000X-0.180000X0.575000X-0.180000X-0.575000X0*%
%ADD41RoundRect,0.100000X-0.100000X0.350000X-0.100000X-0.350000X0.100000X-0.350000X0.100000X0.350000X0*%
%ADD42RoundRect,0.250000X0.362500X1.425000X-0.362500X1.425000X-0.362500X-1.425000X0.362500X-1.425000X0*%
%ADD43RoundRect,0.300000X-0.300000X0.300000X-0.300000X-0.300000X0.300000X-0.300000X0.300000X0.300000X0*%
%ADD44R,0.400000X1.100000*%
%ADD45R,0.925500X0.720000*%
%ADD46RoundRect,0.160000X-0.197500X-0.160000X0.197500X-0.160000X0.197500X0.160000X-0.197500X0.160000X0*%
%ADD47RoundRect,0.250000X-0.337500X-0.475000X0.337500X-0.475000X0.337500X0.475000X-0.337500X0.475000X0*%
%ADD48RoundRect,0.250000X1.000000X0.650000X-1.000000X0.650000X-1.000000X-0.650000X1.000000X-0.650000X0*%
%ADD49RoundRect,0.300000X0.300000X-0.300000X0.300000X0.300000X-0.300000X0.300000X-0.300000X-0.300000X0*%
G04 APERTURE END LIST*
D10*
X218079300Y-75135900D03*
X216679300Y-75135900D03*
X216679300Y-76235900D03*
X218079300Y-76235900D03*
D11*
X212807300Y-72066800D03*
X212807300Y-68941800D03*
D12*
X202570000Y-76895000D03*
X202570000Y-78090000D03*
D13*
X230850000Y-77319500D03*
X230850000Y-78454500D03*
D14*
X200180000Y-80920000D03*
D15*
X203256900Y-85799300D03*
X203256900Y-89499300D03*
D16*
X208912400Y-72866500D03*
X210047400Y-72866500D03*
D13*
X215144100Y-71664000D03*
X215144100Y-72799000D03*
D17*
X213122500Y-88440000D03*
X213122500Y-89520000D03*
X214202500Y-88440000D03*
X214202500Y-89520000D03*
D18*
X211725000Y-87730000D03*
X211725000Y-88230000D03*
X211725000Y-88730000D03*
X211725000Y-89230000D03*
X211725000Y-89730000D03*
X211725000Y-90230000D03*
D19*
X212412500Y-90917500D03*
X212912500Y-90917500D03*
X213412500Y-90917500D03*
X213912500Y-90917500D03*
X214412500Y-90917500D03*
X214912500Y-90917500D03*
D18*
X215600000Y-90230000D03*
X215600000Y-89730000D03*
X215600000Y-89230000D03*
X215600000Y-88730000D03*
X215600000Y-88230000D03*
X215600000Y-87730000D03*
D19*
X214912500Y-87042500D03*
X214412500Y-87042500D03*
X213912500Y-87042500D03*
X213412500Y-87042500D03*
X212912500Y-87042500D03*
X212412500Y-87042500D03*
D20*
X220478100Y-93238500D03*
X220478100Y-92043500D03*
D12*
X220700500Y-74745000D03*
X220700500Y-75940000D03*
D13*
X219830000Y-63752500D03*
X219830000Y-64887500D03*
D12*
X218522300Y-92043500D03*
X218522300Y-93238500D03*
D21*
X228504500Y-72841100D03*
X227854500Y-72841100D03*
X227204500Y-72841100D03*
X226554500Y-72841100D03*
X226554500Y-71241100D03*
X227204500Y-71241100D03*
X227854500Y-71241100D03*
X228504500Y-71241100D03*
D22*
X206012400Y-67532500D03*
X209137400Y-67532500D03*
D23*
X206520400Y-89173300D03*
X209645400Y-89173300D03*
D24*
X226624900Y-75939900D03*
X226624900Y-74804900D03*
D13*
X219512900Y-92060200D03*
X219512900Y-93195200D03*
D25*
X199319900Y-88846900D03*
X199319900Y-91346900D03*
X199319900Y-93846900D03*
X199319900Y-96346900D03*
D12*
X202469500Y-79508000D03*
X202469500Y-80703000D03*
D20*
X225649900Y-75974900D03*
X225649900Y-74779900D03*
D24*
X216990500Y-91112500D03*
X216990500Y-89977500D03*
D14*
X200180000Y-76290000D03*
D20*
X225354900Y-93162300D03*
X225354900Y-91967300D03*
D26*
X207005000Y-91860000D03*
X207005000Y-95760000D03*
X205735000Y-91860000D03*
X205735000Y-95760000D03*
D22*
X206520400Y-86379300D03*
X209645400Y-86379300D03*
D16*
X230292500Y-90690000D03*
X231427500Y-90690000D03*
D27*
X211405700Y-93615700D03*
X212055700Y-93615700D03*
X212705700Y-93615700D03*
X213355700Y-93615700D03*
X214005700Y-93615700D03*
D28*
X209330700Y-96275700D03*
D29*
X210218200Y-93700700D03*
X215193200Y-93700700D03*
D28*
X216080700Y-96275700D03*
D12*
X222600000Y-74777500D03*
X222600000Y-75972500D03*
D30*
X218119700Y-80264500D03*
X218119700Y-80764500D03*
X218119700Y-81264500D03*
X218119700Y-81764500D03*
X218119700Y-82264500D03*
X218119700Y-82764500D03*
X218119700Y-83264500D03*
X218119700Y-83764500D03*
X218119700Y-84264500D03*
X218119700Y-84764500D03*
X218119700Y-85264500D03*
X218119700Y-85764500D03*
X218119700Y-86264500D03*
X218119700Y-86764500D03*
X218119700Y-87264500D03*
X218119700Y-87764500D03*
D31*
X220044700Y-89689500D03*
X220544700Y-89689500D03*
X221044700Y-89689500D03*
X221544700Y-89689500D03*
X222044700Y-89689500D03*
X222544700Y-89689500D03*
X223044700Y-89689500D03*
X223544700Y-89689500D03*
X224044700Y-89689500D03*
X224544700Y-89689500D03*
X225044700Y-89689500D03*
X225544700Y-89689500D03*
X226044700Y-89689500D03*
X226544700Y-89689500D03*
X227044700Y-89689500D03*
X227544700Y-89689500D03*
D30*
X229469700Y-87764500D03*
X229469700Y-87264500D03*
X229469700Y-86764500D03*
X229469700Y-86264500D03*
X229469700Y-85764500D03*
X229469700Y-85264500D03*
X229469700Y-84764500D03*
X229469700Y-84264500D03*
X229469700Y-83764500D03*
X229469700Y-83264500D03*
X229469700Y-82764500D03*
X229469700Y-82264500D03*
X229469700Y-81764500D03*
X229469700Y-81264500D03*
X229469700Y-80764500D03*
X229469700Y-80264500D03*
D31*
X227544700Y-78339500D03*
X227044700Y-78339500D03*
X226544700Y-78339500D03*
X226044700Y-78339500D03*
X225544700Y-78339500D03*
X225044700Y-78339500D03*
X224544700Y-78339500D03*
X224044700Y-78339500D03*
X223544700Y-78339500D03*
X223044700Y-78339500D03*
X222544700Y-78339500D03*
X222044700Y-78339500D03*
X221544700Y-78339500D03*
X221044700Y-78339500D03*
X220544700Y-78339500D03*
X220044700Y-78339500D03*
D32*
X231628700Y-87890100D03*
X231628700Y-86290100D03*
X231628700Y-84690100D03*
X231628700Y-83090100D03*
X231628700Y-81490100D03*
X231628700Y-79890100D03*
D33*
X215465500Y-82292900D03*
X215465500Y-80892900D03*
X214365500Y-80892900D03*
X214365500Y-82292900D03*
D24*
X218877900Y-64887500D03*
X218877900Y-63752500D03*
D12*
X221650500Y-74745000D03*
X221650500Y-75940000D03*
D34*
X210356800Y-91891100D03*
X209161800Y-91891100D03*
D35*
X224200500Y-75952500D03*
X224200500Y-74807500D03*
D36*
X215448900Y-84474300D03*
X214313900Y-84474300D03*
D12*
X215144100Y-73945400D03*
X215144100Y-75140400D03*
D37*
X206550000Y-76800000D03*
X205050000Y-76800000D03*
X206550000Y-77940000D03*
X205050000Y-77940000D03*
D38*
X207705000Y-74895000D03*
X206435000Y-74895000D03*
X205165000Y-74895000D03*
X203895000Y-74895000D03*
X203895000Y-79845000D03*
X205165000Y-79845000D03*
X206435000Y-79845000D03*
X207705000Y-79845000D03*
D24*
X229926900Y-78454500D03*
X229926900Y-77319500D03*
D26*
X210089500Y-78722300D03*
X210089500Y-74822300D03*
X211359500Y-78722300D03*
X211359500Y-74822300D03*
X212629500Y-78722300D03*
X212629500Y-74822300D03*
X213899500Y-78722300D03*
X213899500Y-74822300D03*
D24*
X215118700Y-79580800D03*
X215118700Y-78445800D03*
D39*
X231660000Y-72010000D03*
X231660000Y-70010000D03*
X231660000Y-68010000D03*
X231660000Y-66010000D03*
X231660000Y-64010000D03*
D24*
X217930000Y-64887500D03*
X217930000Y-63752500D03*
D35*
X215144100Y-77357600D03*
X215144100Y-76212600D03*
D12*
X223388100Y-92008600D03*
X223388100Y-93203600D03*
X216990000Y-63742500D03*
X216990000Y-64937500D03*
D40*
X210040000Y-83440000D03*
X210690000Y-83440000D03*
X211340000Y-83440000D03*
X211340000Y-81520000D03*
X210690000Y-81520000D03*
X210040000Y-81520000D03*
D41*
X214610700Y-65154700D03*
X213960700Y-65154700D03*
X213310700Y-65154700D03*
X213310700Y-67354700D03*
X213960700Y-67354700D03*
X214610700Y-67354700D03*
D13*
X208980000Y-79510000D03*
X208980000Y-80645000D03*
D16*
X214297200Y-85464900D03*
X215432200Y-85464900D03*
D20*
X224379900Y-93162300D03*
X224379900Y-91967300D03*
D36*
X212689000Y-85439500D03*
X211554000Y-85439500D03*
D24*
X208970000Y-75417500D03*
X208970000Y-74282500D03*
D36*
X231427500Y-89740000D03*
X230292500Y-89740000D03*
X228555300Y-70263100D03*
X227420300Y-70263100D03*
D22*
X207079200Y-70732900D03*
X210204200Y-70732900D03*
D12*
X202494900Y-74335000D03*
X202494900Y-75530000D03*
D16*
X213738400Y-63976500D03*
X214873400Y-63976500D03*
D42*
X205254200Y-71750000D03*
X199329200Y-71750000D03*
D43*
X206798300Y-64000000D03*
X204298300Y-64000000D03*
X201798300Y-64000000D03*
X199298300Y-64000000D03*
D44*
X216552700Y-72470500D03*
X217202700Y-72470500D03*
X217852700Y-72470500D03*
X218502700Y-72470500D03*
X219152700Y-72470500D03*
X219802700Y-72470500D03*
X220452700Y-72470500D03*
X221102700Y-72470500D03*
X221752700Y-72470500D03*
X222402700Y-72470500D03*
X223052700Y-72470500D03*
X223702700Y-72470500D03*
X224352700Y-72470500D03*
X225002700Y-72470500D03*
X225002700Y-66770500D03*
X224352700Y-66770500D03*
X223702700Y-66770500D03*
X223052700Y-66770500D03*
X222402700Y-66770500D03*
X221752700Y-66770500D03*
X221102700Y-66770500D03*
X220452700Y-66770500D03*
X219802700Y-66770500D03*
X219152700Y-66770500D03*
X218502700Y-66770500D03*
X217852700Y-66770500D03*
X217202700Y-66770500D03*
X216552700Y-66770500D03*
D45*
X218463950Y-70220500D03*
X220006450Y-70220500D03*
X221548950Y-70220500D03*
X223091450Y-70220500D03*
X218463950Y-69020500D03*
X220006450Y-69020500D03*
X221548950Y-69020500D03*
X223091450Y-69020500D03*
D24*
X221750000Y-64910000D03*
X221750000Y-63775000D03*
D46*
X209161800Y-90925900D03*
X210356800Y-90925900D03*
D12*
X209000000Y-77082500D03*
X209000000Y-78277500D03*
D20*
X220800000Y-64940000D03*
X220800000Y-63745000D03*
D36*
X217650500Y-77832500D03*
X216515500Y-77832500D03*
D20*
X222433900Y-93213100D03*
X222433900Y-92018100D03*
D47*
X223463000Y-64582500D03*
X225538000Y-64582500D03*
D12*
X229622100Y-71634700D03*
X229622100Y-72829700D03*
D36*
X215457600Y-83509100D03*
X214322600Y-83509100D03*
D48*
X207320900Y-82975700D03*
X203320900Y-82975700D03*
D13*
X221468700Y-92060200D03*
X221468700Y-93195200D03*
D24*
X219770500Y-75895000D03*
X219770500Y-74760000D03*
D36*
X217650500Y-78832500D03*
X216515500Y-78832500D03*
D49*
X224120000Y-96360000D03*
X226620000Y-96360000D03*
X229120000Y-96360000D03*
X231620000Y-96360000D03*
M02*
