G04 #@! TF.GenerationSoftware,KiCad,Pcbnew,8.0.0-8.0.0-1~ubuntu22.04.1*
G04 #@! TF.CreationDate,2024-03-02T20:13:00+07:00*
G04 #@! TF.ProjectId,FC_ESC_STM32F405RG_26x26,46435f45-5343-45f5-9354-4d3332463430,rev?*
G04 #@! TF.SameCoordinates,Original*
G04 #@! TF.FileFunction,Paste,Bot*
G04 #@! TF.FilePolarity,Positive*
%FSLAX46Y46*%
G04 Gerber Fmt 4.6, Leading zero omitted, Abs format (unit mm)*
G04 Created by KiCad (PCBNEW 8.0.0-8.0.0-1~ubuntu22.04.1) date 2024-03-02 20:13:00*
%MOMM*%
%LPD*%
G01*
G04 APERTURE LIST*
G04 Aperture macros list*
%AMRoundRect*
0 Rectangle with rounded corners*
0 $1 Rounding radius*
0 $2 $3 $4 $5 $6 $7 $8 $9 X,Y pos of 4 corners*
0 Add a 4 corners polygon primitive as box body*
4,1,4,$2,$3,$4,$5,$6,$7,$8,$9,$2,$3,0*
0 Add four circle primitives for the rounded corners*
1,1,$1+$1,$2,$3*
1,1,$1+$1,$4,$5*
1,1,$1+$1,$6,$7*
1,1,$1+$1,$8,$9*
0 Add four rect primitives between the rounded corners*
20,1,$1+$1,$2,$3,$4,$5,0*
20,1,$1+$1,$4,$5,$6,$7,0*
20,1,$1+$1,$6,$7,$8,$9,0*
20,1,$1+$1,$8,$9,$2,$3,0*%
G04 Aperture macros list end*
%ADD10RoundRect,0.155000X-0.155000X0.212500X-0.155000X-0.212500X0.155000X-0.212500X0.155000X0.212500X0*%
%ADD11R,0.540000X0.540000*%
%ADD12R,0.300000X0.300000*%
%ADD13R,0.300000X0.900000*%
%ADD14R,0.900000X0.300000*%
%ADD15RoundRect,0.160000X-0.160000X0.197500X-0.160000X-0.197500X0.160000X-0.197500X0.160000X0.197500X0*%
%ADD16RoundRect,0.112500X0.187500X0.112500X-0.187500X0.112500X-0.187500X-0.112500X0.187500X-0.112500X0*%
%ADD17RoundRect,0.300000X-0.300000X0.300000X-0.300000X-0.300000X0.300000X-0.300000X0.300000X0.300000X0*%
%ADD18RoundRect,0.160000X0.197500X0.160000X-0.197500X0.160000X-0.197500X-0.160000X0.197500X-0.160000X0*%
%ADD19RoundRect,0.112500X-0.187500X-0.112500X0.187500X-0.112500X0.187500X0.112500X-0.187500X0.112500X0*%
%ADD20R,0.450000X0.450000*%
%ADD21R,2.760000X0.900000*%
%ADD22R,2.760000X0.970000*%
%ADD23RoundRect,0.112500X0.112500X-0.187500X0.112500X0.187500X-0.112500X0.187500X-0.112500X-0.187500X0*%
%ADD24RoundRect,0.155000X0.212500X0.155000X-0.212500X0.155000X-0.212500X-0.155000X0.212500X-0.155000X0*%
%ADD25R,0.900000X2.760000*%
%ADD26R,0.970000X2.760000*%
%ADD27RoundRect,0.160000X-0.197500X-0.160000X0.197500X-0.160000X0.197500X0.160000X-0.197500X0.160000X0*%
%ADD28RoundRect,0.155000X-0.212500X-0.155000X0.212500X-0.155000X0.212500X0.155000X-0.212500X0.155000X0*%
%ADD29RoundRect,0.155000X0.155000X-0.212500X0.155000X0.212500X-0.155000X0.212500X-0.155000X-0.212500X0*%
%ADD30RoundRect,0.112500X-0.112500X0.187500X-0.112500X-0.187500X0.112500X-0.187500X0.112500X0.187500X0*%
%ADD31RoundRect,0.160000X0.160000X-0.197500X0.160000X0.197500X-0.160000X0.197500X-0.160000X-0.197500X0*%
%ADD32RoundRect,0.300000X-0.300000X-0.300000X0.300000X-0.300000X0.300000X0.300000X-0.300000X0.300000X0*%
%ADD33RoundRect,0.217500X0.217500X-0.217500X0.217500X0.217500X-0.217500X0.217500X-0.217500X-0.217500X0*%
%ADD34RoundRect,0.062500X0.062500X-0.375000X0.062500X0.375000X-0.062500X0.375000X-0.062500X-0.375000X0*%
%ADD35RoundRect,0.062500X0.375000X-0.062500X0.375000X0.062500X-0.375000X0.062500X-0.375000X-0.062500X0*%
%ADD36RoundRect,0.217500X0.217500X0.217500X-0.217500X0.217500X-0.217500X-0.217500X0.217500X-0.217500X0*%
%ADD37RoundRect,0.062500X0.375000X0.062500X-0.375000X0.062500X-0.375000X-0.062500X0.375000X-0.062500X0*%
%ADD38RoundRect,0.062500X0.062500X0.375000X-0.062500X0.375000X-0.062500X-0.375000X0.062500X-0.375000X0*%
%ADD39RoundRect,0.217500X-0.217500X0.217500X-0.217500X-0.217500X0.217500X-0.217500X0.217500X0.217500X0*%
%ADD40RoundRect,0.062500X-0.062500X0.375000X-0.062500X-0.375000X0.062500X-0.375000X0.062500X0.375000X0*%
%ADD41RoundRect,0.062500X-0.375000X0.062500X-0.375000X-0.062500X0.375000X-0.062500X0.375000X0.062500X0*%
%ADD42RoundRect,0.300000X0.300000X0.300000X-0.300000X0.300000X-0.300000X-0.300000X0.300000X-0.300000X0*%
%ADD43RoundRect,0.217500X-0.217500X-0.217500X0.217500X-0.217500X0.217500X0.217500X-0.217500X0.217500X0*%
%ADD44RoundRect,0.062500X-0.375000X-0.062500X0.375000X-0.062500X0.375000X0.062500X-0.375000X0.062500X0*%
%ADD45RoundRect,0.062500X-0.062500X-0.375000X0.062500X-0.375000X0.062500X0.375000X-0.062500X0.375000X0*%
%ADD46RoundRect,0.300000X0.300000X-0.300000X0.300000X0.300000X-0.300000X0.300000X-0.300000X-0.300000X0*%
%ADD47RoundRect,0.250000X-0.650000X0.412500X-0.650000X-0.412500X0.650000X-0.412500X0.650000X0.412500X0*%
G04 APERTURE END LIST*
D10*
X212527900Y-73702500D03*
X212527900Y-74837500D03*
X207117700Y-95475000D03*
X207117700Y-96610000D03*
D11*
X220150500Y-80657500D03*
X221050500Y-80657500D03*
X220150500Y-79757500D03*
X221050500Y-79757500D03*
D12*
X221850500Y-81457500D03*
D13*
X221350500Y-81757500D03*
X220850500Y-81757500D03*
X220350500Y-81757500D03*
X219850500Y-81757500D03*
D12*
X219350500Y-81457500D03*
D14*
X219050500Y-80957500D03*
X219050500Y-80457500D03*
X219050500Y-79957500D03*
X219050500Y-79457500D03*
D12*
X219350500Y-78957500D03*
D13*
X219850500Y-78657500D03*
X220350500Y-78657500D03*
X220850500Y-78657500D03*
X221350500Y-78657500D03*
D12*
X221850500Y-78957500D03*
D14*
X222150500Y-79457500D03*
X222150500Y-79957500D03*
X222150500Y-80457500D03*
X222150500Y-80957500D03*
D15*
X206076300Y-91547600D03*
X206076300Y-92742600D03*
D16*
X231891300Y-90036900D03*
X229791300Y-90036900D03*
D17*
X224154100Y-96336100D03*
X226654100Y-96336100D03*
X229154100Y-96336100D03*
X231654100Y-96336100D03*
D15*
X211257900Y-91623800D03*
X211257900Y-92818800D03*
X218100500Y-70637500D03*
X218100500Y-71832500D03*
X216150500Y-70612500D03*
X216150500Y-71807500D03*
D18*
X204145900Y-72333100D03*
X202950900Y-72333100D03*
D19*
X199031900Y-74187300D03*
X201131900Y-74187300D03*
D20*
X203774700Y-90222900D03*
X203124700Y-90222900D03*
D21*
X202799700Y-89346900D03*
D20*
X202474700Y-90222900D03*
X201824700Y-90222900D03*
D22*
X202799700Y-88131900D03*
D20*
X203124700Y-87150900D03*
X202474700Y-87150900D03*
X201824700Y-87150900D03*
X203774700Y-87150900D03*
D23*
X213289900Y-96573300D03*
X213289900Y-94473300D03*
D24*
X222306900Y-76157500D03*
X221171900Y-76157500D03*
D20*
X212459900Y-66506700D03*
X212459900Y-67156700D03*
D25*
X211583900Y-67481700D03*
D20*
X212459900Y-67806700D03*
X212459900Y-68456700D03*
D26*
X210368900Y-67481700D03*
D20*
X209387900Y-67156700D03*
X209387900Y-67806700D03*
X209387900Y-68456700D03*
X209387900Y-66506700D03*
D18*
X200237500Y-76600000D03*
X199042500Y-76600000D03*
D19*
X199050500Y-78048100D03*
X201150500Y-78048100D03*
D10*
X210902300Y-95455000D03*
X210902300Y-96590000D03*
D18*
X207325500Y-82657500D03*
X206130500Y-82657500D03*
X204171300Y-70605900D03*
X202976300Y-70605900D03*
D20*
X218463300Y-93831300D03*
X218463300Y-93181300D03*
D25*
X219339300Y-92856300D03*
D20*
X218463300Y-92531300D03*
X218463300Y-91881300D03*
D26*
X220554300Y-92856300D03*
D20*
X221535300Y-93181300D03*
X221535300Y-92531300D03*
X221535300Y-91881300D03*
X221535300Y-93831300D03*
D24*
X200195000Y-71748900D03*
X199060000Y-71748900D03*
X231887500Y-88589100D03*
X230752500Y-88589100D03*
D27*
X227017650Y-89732100D03*
X228212650Y-89732100D03*
D28*
X230756400Y-80384900D03*
X231891400Y-80384900D03*
D16*
X231891300Y-82340700D03*
X229791300Y-82340700D03*
D18*
X231897500Y-79394300D03*
X230702500Y-79394300D03*
D27*
X224055400Y-79832700D03*
X225250400Y-79832700D03*
D19*
X199048700Y-70326500D03*
X201148700Y-70326500D03*
D24*
X200193000Y-79932500D03*
X199058000Y-79932500D03*
D18*
X200237500Y-72739500D03*
X199042500Y-72739500D03*
D23*
X209479900Y-96607500D03*
X209479900Y-94507500D03*
D24*
X221375800Y-84182500D03*
X220240800Y-84182500D03*
D15*
X207828900Y-91598400D03*
X207828900Y-92793400D03*
D24*
X211130900Y-76193900D03*
X209995900Y-76193900D03*
D18*
X204145900Y-74161900D03*
X202950900Y-74161900D03*
D29*
X219650500Y-86907500D03*
X219650500Y-85772500D03*
D10*
X211527500Y-84668800D03*
X211527500Y-85803800D03*
D27*
X226967200Y-87982500D03*
X228162200Y-87982500D03*
D20*
X201764100Y-79294100D03*
X202414100Y-79294100D03*
D21*
X202739100Y-80170100D03*
D20*
X203064100Y-79294100D03*
X203714100Y-79294100D03*
D22*
X202739100Y-81385100D03*
D20*
X202414100Y-82366100D03*
X203064100Y-82366100D03*
X203714100Y-82366100D03*
X201764100Y-82366100D03*
X214547900Y-93805900D03*
X214547900Y-93155900D03*
D25*
X215423900Y-92830900D03*
D20*
X214547900Y-92505900D03*
X214547900Y-91855900D03*
D26*
X216638900Y-92830900D03*
D20*
X217619900Y-93155900D03*
X217619900Y-92505900D03*
X217619900Y-91855900D03*
X217619900Y-93805900D03*
D30*
X217633300Y-63773300D03*
X217633300Y-65873300D03*
D15*
X214570000Y-63762500D03*
X214570000Y-64957500D03*
D18*
X204133400Y-76762500D03*
X202938400Y-76762500D03*
D27*
X224037900Y-82807700D03*
X225232900Y-82807700D03*
X206128000Y-77757500D03*
X207323000Y-77757500D03*
D29*
X218700500Y-86915000D03*
X218700500Y-85780000D03*
D24*
X231897500Y-84750000D03*
X230762500Y-84750000D03*
D15*
X212232900Y-91623800D03*
X212232900Y-92818800D03*
D29*
X219614500Y-75618400D03*
X219614500Y-74483400D03*
D10*
X214750000Y-95452500D03*
X214750000Y-96587500D03*
D15*
X209556100Y-91598400D03*
X209556100Y-92793400D03*
D20*
X229190300Y-81096100D03*
X228540300Y-81096100D03*
D21*
X228215300Y-80220100D03*
D20*
X227890300Y-81096100D03*
X227240300Y-81096100D03*
D22*
X228215300Y-79005100D03*
D20*
X228540300Y-78024100D03*
X227890300Y-78024100D03*
X227240300Y-78024100D03*
X229190300Y-78024100D03*
D27*
X206128000Y-79732500D03*
X207323000Y-79732500D03*
D18*
X207325500Y-78757500D03*
X206130500Y-78757500D03*
D27*
X206125500Y-80682500D03*
X207320500Y-80682500D03*
D15*
X213975500Y-88532500D03*
X213975500Y-89727500D03*
D18*
X204145900Y-75787500D03*
X202950900Y-75787500D03*
D30*
X225329500Y-63782500D03*
X225329500Y-65882500D03*
D31*
X218025500Y-89705000D03*
X218025500Y-88510000D03*
D18*
X221405800Y-83204300D03*
X220210800Y-83204300D03*
D16*
X231908100Y-86176100D03*
X229808100Y-86176100D03*
D20*
X229179900Y-77188545D03*
X228529900Y-77188545D03*
D21*
X228204900Y-76312545D03*
D20*
X227879900Y-77188545D03*
X227229900Y-77188545D03*
D22*
X228204900Y-75097545D03*
D20*
X228529900Y-74116545D03*
X227879900Y-74116545D03*
X227229900Y-74116545D03*
X229179900Y-74116545D03*
D18*
X204133400Y-77727700D03*
X202938400Y-77727700D03*
D31*
X212975500Y-89727500D03*
X212975500Y-88532500D03*
D11*
X211040000Y-79730000D03*
X210140000Y-79730000D03*
X211040000Y-80630000D03*
X210140000Y-80630000D03*
D12*
X209340000Y-78930000D03*
D13*
X209840000Y-78630000D03*
X210340000Y-78630000D03*
X210840000Y-78630000D03*
X211340000Y-78630000D03*
D12*
X211840000Y-78930000D03*
D14*
X212140000Y-79430000D03*
X212140000Y-79930000D03*
X212140000Y-80430000D03*
X212140000Y-80930000D03*
D12*
X211840000Y-81430000D03*
D13*
X211340000Y-81730000D03*
X210840000Y-81730000D03*
X210340000Y-81730000D03*
X209840000Y-81730000D03*
D12*
X209340000Y-81430000D03*
D14*
X209040000Y-80930000D03*
X209040000Y-80430000D03*
X209040000Y-79930000D03*
X209040000Y-79430000D03*
D27*
X230712500Y-83788500D03*
X231907500Y-83788500D03*
D31*
X215025500Y-89730000D03*
X215025500Y-88535000D03*
D32*
X231650500Y-71485700D03*
X231650500Y-68985700D03*
X231650500Y-66485700D03*
X231650500Y-63985700D03*
D27*
X226967200Y-86303100D03*
X228162200Y-86303100D03*
X226979300Y-83600900D03*
X228174300Y-83600900D03*
D20*
X216367345Y-66506700D03*
X216367345Y-67156700D03*
D25*
X215491345Y-67481700D03*
D20*
X216367345Y-67806700D03*
X216367345Y-68456700D03*
D26*
X214276345Y-67481700D03*
D20*
X213295345Y-67156700D03*
X213295345Y-67806700D03*
X213295345Y-68456700D03*
X213295345Y-66506700D03*
D33*
X222460000Y-73290000D03*
X223540000Y-73290000D03*
X222460000Y-72210000D03*
X223540000Y-72210000D03*
D34*
X224250000Y-74687500D03*
X223750000Y-74687500D03*
X223250000Y-74687500D03*
X222750000Y-74687500D03*
X222250000Y-74687500D03*
X221750000Y-74687500D03*
D35*
X221062500Y-74000000D03*
X221062500Y-73500000D03*
X221062500Y-73000000D03*
X221062500Y-72500000D03*
X221062500Y-72000000D03*
X221062500Y-71500000D03*
D34*
X221750000Y-70812500D03*
X222250000Y-70812500D03*
X222750000Y-70812500D03*
X223250000Y-70812500D03*
X223750000Y-70812500D03*
X224250000Y-70812500D03*
D35*
X224937500Y-71500000D03*
X224937500Y-72000000D03*
X224937500Y-72500000D03*
X224937500Y-73000000D03*
X224937500Y-73500000D03*
X224937500Y-74000000D03*
D18*
X225230400Y-80848700D03*
X224035400Y-80848700D03*
D36*
X208800000Y-73330000D03*
X208800000Y-72250000D03*
X207720000Y-73330000D03*
X207720000Y-72250000D03*
D37*
X210197500Y-71540000D03*
X210197500Y-72040000D03*
X210197500Y-72540000D03*
X210197500Y-73040000D03*
X210197500Y-73540000D03*
X210197500Y-74040000D03*
D38*
X209510000Y-74727500D03*
X209010000Y-74727500D03*
X208510000Y-74727500D03*
X208010000Y-74727500D03*
X207510000Y-74727500D03*
X207010000Y-74727500D03*
D37*
X206322500Y-74040000D03*
X206322500Y-73540000D03*
X206322500Y-73040000D03*
X206322500Y-72540000D03*
X206322500Y-72040000D03*
X206322500Y-71540000D03*
D38*
X207010000Y-70852500D03*
X207510000Y-70852500D03*
X208010000Y-70852500D03*
X208510000Y-70852500D03*
X209010000Y-70852500D03*
X209510000Y-70852500D03*
D39*
X208780000Y-87100000D03*
X207700000Y-87100000D03*
X208780000Y-88180000D03*
X207700000Y-88180000D03*
D40*
X206990000Y-85702500D03*
X207490000Y-85702500D03*
X207990000Y-85702500D03*
X208490000Y-85702500D03*
X208990000Y-85702500D03*
X209490000Y-85702500D03*
D41*
X210177500Y-86390000D03*
X210177500Y-86890000D03*
X210177500Y-87390000D03*
X210177500Y-87890000D03*
X210177500Y-88390000D03*
X210177500Y-88890000D03*
D40*
X209490000Y-89577500D03*
X208990000Y-89577500D03*
X208490000Y-89577500D03*
X207990000Y-89577500D03*
X207490000Y-89577500D03*
X206990000Y-89577500D03*
D41*
X206302500Y-88890000D03*
X206302500Y-88390000D03*
X206302500Y-87890000D03*
X206302500Y-87390000D03*
X206302500Y-86890000D03*
X206302500Y-86390000D03*
D23*
X205669900Y-96573300D03*
X205669900Y-94473300D03*
D18*
X225247900Y-77857700D03*
X224052900Y-77857700D03*
D20*
X205458500Y-68456700D03*
X205458500Y-67806700D03*
D25*
X206334500Y-67481700D03*
D20*
X205458500Y-67156700D03*
X205458500Y-66506700D03*
D26*
X207549500Y-67481700D03*
D20*
X208530500Y-67806700D03*
X208530500Y-67156700D03*
X208530500Y-66506700D03*
X208530500Y-68456700D03*
D31*
X211867500Y-96607500D03*
X211867500Y-95412500D03*
D27*
X230702500Y-87620000D03*
X231897500Y-87620000D03*
D15*
X217025500Y-88510000D03*
X217025500Y-89705000D03*
D20*
X225481900Y-91871500D03*
X225481900Y-92521500D03*
D25*
X224605900Y-92846500D03*
D20*
X225481900Y-93171500D03*
X225481900Y-93821500D03*
D26*
X223390900Y-92846500D03*
D20*
X222409900Y-92521500D03*
X222409900Y-93171500D03*
X222409900Y-93821500D03*
X222409900Y-91871500D03*
D31*
X219817700Y-68662500D03*
X219817700Y-67467500D03*
D24*
X222306900Y-77157500D03*
X221171900Y-77157500D03*
D31*
X215175500Y-71810000D03*
X215175500Y-70615000D03*
D15*
X222930000Y-63762500D03*
X222930000Y-64957500D03*
X213207900Y-91598800D03*
X213207900Y-92793800D03*
D27*
X226974400Y-82614700D03*
X228169400Y-82614700D03*
D29*
X223907100Y-64897500D03*
X223907100Y-63762500D03*
D20*
X227250100Y-70187500D03*
X227900100Y-70187500D03*
D21*
X228225100Y-71063500D03*
D20*
X228550100Y-70187500D03*
X229200100Y-70187500D03*
D22*
X228225100Y-72278500D03*
D20*
X227900100Y-73259500D03*
X228550100Y-73259500D03*
X229200100Y-73259500D03*
X227250100Y-73259500D03*
D27*
X199045500Y-80907500D03*
X200240500Y-80907500D03*
D28*
X208865500Y-84182500D03*
X210000500Y-84182500D03*
D15*
X218623900Y-74428000D03*
X218623900Y-75623000D03*
D29*
X215500000Y-64907500D03*
X215500000Y-63772500D03*
D42*
X199300500Y-88826900D03*
X199300500Y-91326900D03*
X199300500Y-93826900D03*
X199300500Y-96326900D03*
D43*
X222540000Y-87027500D03*
X222540000Y-88107500D03*
X223620000Y-87027500D03*
X223620000Y-88107500D03*
D44*
X221142500Y-88817500D03*
X221142500Y-88317500D03*
X221142500Y-87817500D03*
X221142500Y-87317500D03*
X221142500Y-86817500D03*
X221142500Y-86317500D03*
D45*
X221830000Y-85630000D03*
X222330000Y-85630000D03*
X222830000Y-85630000D03*
X223330000Y-85630000D03*
X223830000Y-85630000D03*
X224330000Y-85630000D03*
D44*
X225017500Y-86317500D03*
X225017500Y-86817500D03*
X225017500Y-87317500D03*
X225017500Y-87817500D03*
X225017500Y-88317500D03*
X225017500Y-88817500D03*
D45*
X224330000Y-89505000D03*
X223830000Y-89505000D03*
X223330000Y-89505000D03*
X222830000Y-89505000D03*
X222330000Y-89505000D03*
X221830000Y-89505000D03*
D27*
X224052500Y-78857700D03*
X225247500Y-78857700D03*
D31*
X217125500Y-71807500D03*
X217125500Y-70612500D03*
X208057500Y-96617500D03*
X208057500Y-95422500D03*
D28*
X199052500Y-75640000D03*
X200187500Y-75640000D03*
D46*
X206780000Y-64010000D03*
X204280000Y-64010000D03*
X201780000Y-64010000D03*
X199280000Y-64010000D03*
D11*
X216025500Y-75707500D03*
X216025500Y-74807500D03*
X215125500Y-75707500D03*
X215125500Y-74807500D03*
D12*
X216825500Y-74007500D03*
D14*
X217125500Y-74507500D03*
X217125500Y-75007500D03*
X217125500Y-75507500D03*
X217125500Y-76007500D03*
D12*
X216825500Y-76507500D03*
D13*
X216325500Y-76807500D03*
X215825500Y-76807500D03*
X215325500Y-76807500D03*
X214825500Y-76807500D03*
D12*
X214325500Y-76507500D03*
D14*
X214025500Y-76007500D03*
X214025500Y-75507500D03*
X214025500Y-75007500D03*
X214025500Y-74507500D03*
D12*
X214325500Y-74007500D03*
D13*
X214825500Y-73707500D03*
X215325500Y-73707500D03*
X215825500Y-73707500D03*
X216325500Y-73707500D03*
D31*
X223449900Y-68638000D03*
X223449900Y-67443000D03*
D11*
X215110000Y-84730000D03*
X215110000Y-85630000D03*
X216010000Y-84730000D03*
X216010000Y-85630000D03*
D12*
X214310000Y-86430000D03*
D14*
X214010000Y-85930000D03*
X214010000Y-85430000D03*
X214010000Y-84930000D03*
X214010000Y-84430000D03*
D12*
X214310000Y-83930000D03*
D13*
X214810000Y-83630000D03*
X215310000Y-83630000D03*
X215810000Y-83630000D03*
X216310000Y-83630000D03*
D12*
X216810000Y-83930000D03*
D14*
X217110000Y-84430000D03*
X217110000Y-84930000D03*
X217110000Y-85430000D03*
X217110000Y-85930000D03*
D12*
X216810000Y-86430000D03*
D13*
X216310000Y-86730000D03*
X215810000Y-86730000D03*
X215310000Y-86730000D03*
X214810000Y-86730000D03*
D31*
X225096545Y-68624700D03*
X225096545Y-67429700D03*
D47*
X214387900Y-78645000D03*
X214387900Y-81770000D03*
D31*
X221570300Y-68637500D03*
X221570300Y-67442500D03*
D27*
X209974600Y-77209900D03*
X211169600Y-77209900D03*
D31*
X218852500Y-68662500D03*
X218852500Y-67467500D03*
X216025500Y-89727500D03*
X216025500Y-88532500D03*
D30*
X221494100Y-63782500D03*
X221494100Y-65882500D03*
D15*
X214175500Y-70610000D03*
X214175500Y-71805000D03*
D29*
X220071700Y-64892500D03*
X220071700Y-63757500D03*
D10*
X211575500Y-73707500D03*
X211575500Y-74842500D03*
D31*
X212502500Y-85821700D03*
X212502500Y-84626700D03*
D27*
X224032900Y-81832700D03*
X225227900Y-81832700D03*
D31*
X215728300Y-96607500D03*
X215728300Y-95412500D03*
D20*
X201783700Y-83229700D03*
X202433700Y-83229700D03*
D21*
X202758700Y-84105700D03*
D20*
X203083700Y-83229700D03*
X203733700Y-83229700D03*
D22*
X202758700Y-85320700D03*
D20*
X202433700Y-86301700D03*
X203083700Y-86301700D03*
X203733700Y-86301700D03*
X201783700Y-86301700D03*
D15*
X213150500Y-70610000D03*
X213150500Y-71805000D03*
D27*
X226979300Y-84575900D03*
X228174300Y-84575900D03*
D18*
X207320500Y-81657500D03*
X206125500Y-81657500D03*
D31*
X217861500Y-68644100D03*
X217861500Y-67449100D03*
D28*
X208865500Y-83207500D03*
X210000500Y-83207500D03*
D15*
X219096700Y-63762500D03*
X219096700Y-64957500D03*
D47*
X216775500Y-78645000D03*
X216775500Y-81770000D03*
M02*
