G04 #@! TF.GenerationSoftware,KiCad,Pcbnew,8.0.0-8.0.0-1~ubuntu22.04.1*
G04 #@! TF.CreationDate,2024-03-02T20:13:00+07:00*
G04 #@! TF.ProjectId,FC_ESC_STM32F405RG_26x26,46435f45-5343-45f5-9354-4d3332463430,rev?*
G04 #@! TF.SameCoordinates,Original*
G04 #@! TF.FileFunction,Legend,Bot*
G04 #@! TF.FilePolarity,Positive*
%FSLAX46Y46*%
G04 Gerber Fmt 4.6, Leading zero omitted, Abs format (unit mm)*
G04 Created by KiCad (PCBNEW 8.0.0-8.0.0-1~ubuntu22.04.1) date 2024-03-02 20:13:00*
%MOMM*%
%LPD*%
G01*
G04 APERTURE LIST*
G04 Aperture macros list*
%AMRoundRect*
0 Rectangle with rounded corners*
0 $1 Rounding radius*
0 $2 $3 $4 $5 $6 $7 $8 $9 X,Y pos of 4 corners*
0 Add a 4 corners polygon primitive as box body*
4,1,4,$2,$3,$4,$5,$6,$7,$8,$9,$2,$3,0*
0 Add four circle primitives for the rounded corners*
1,1,$1+$1,$2,$3*
1,1,$1+$1,$4,$5*
1,1,$1+$1,$6,$7*
1,1,$1+$1,$8,$9*
0 Add four rect primitives between the rounded corners*
20,1,$1+$1,$2,$3,$4,$5,0*
20,1,$1+$1,$4,$5,$6,$7,0*
20,1,$1+$1,$6,$7,$8,$9,0*
20,1,$1+$1,$8,$9,$2,$3,0*%
G04 Aperture macros list end*
%ADD10C,0.150000*%
%ADD11C,2.550000*%
%ADD12C,0.120000*%
%ADD13C,0.160000*%
%ADD14C,0.900000*%
%ADD15RoundRect,0.155000X-0.155000X0.212500X-0.155000X-0.212500X0.155000X-0.212500X0.155000X0.212500X0*%
%ADD16R,0.300000X0.300000*%
%ADD17R,0.300000X0.900000*%
%ADD18R,0.900000X0.300000*%
%ADD19R,1.800000X1.800000*%
%ADD20RoundRect,0.160000X-0.160000X0.197500X-0.160000X-0.197500X0.160000X-0.197500X0.160000X0.197500X0*%
%ADD21RoundRect,0.112500X0.187500X0.112500X-0.187500X0.112500X-0.187500X-0.112500X0.187500X-0.112500X0*%
%ADD22RoundRect,0.300000X-0.300000X0.300000X-0.300000X-0.300000X0.300000X-0.300000X0.300000X0.300000X0*%
%ADD23RoundRect,0.160000X0.197500X0.160000X-0.197500X0.160000X-0.197500X-0.160000X0.197500X-0.160000X0*%
%ADD24RoundRect,0.112500X-0.187500X-0.112500X0.187500X-0.112500X0.187500X0.112500X-0.187500X0.112500X0*%
%ADD25R,0.450000X0.450000*%
%ADD26R,2.760000X0.900000*%
%ADD27R,2.760000X0.970000*%
%ADD28RoundRect,0.112500X0.112500X-0.187500X0.112500X0.187500X-0.112500X0.187500X-0.112500X-0.187500X0*%
%ADD29RoundRect,0.155000X0.212500X0.155000X-0.212500X0.155000X-0.212500X-0.155000X0.212500X-0.155000X0*%
%ADD30R,0.900000X2.760000*%
%ADD31R,0.970000X2.760000*%
%ADD32RoundRect,0.225000X-0.475000X0.225000X-0.475000X-0.225000X0.475000X-0.225000X0.475000X0.225000X0*%
%ADD33O,1.400000X0.900000*%
%ADD34RoundRect,0.160000X-0.197500X-0.160000X0.197500X-0.160000X0.197500X0.160000X-0.197500X0.160000X0*%
%ADD35RoundRect,0.155000X-0.212500X-0.155000X0.212500X-0.155000X0.212500X0.155000X-0.212500X0.155000X0*%
%ADD36RoundRect,0.155000X0.155000X-0.212500X0.155000X0.212500X-0.155000X0.212500X-0.155000X-0.212500X0*%
%ADD37RoundRect,0.112500X-0.112500X0.187500X-0.112500X-0.187500X0.112500X-0.187500X0.112500X0.187500X0*%
%ADD38RoundRect,0.160000X0.160000X-0.197500X0.160000X0.197500X-0.160000X0.197500X-0.160000X-0.197500X0*%
%ADD39RoundRect,0.225000X0.475000X-0.225000X0.475000X0.225000X-0.475000X0.225000X-0.475000X-0.225000X0*%
%ADD40RoundRect,0.300000X-0.300000X-0.300000X0.300000X-0.300000X0.300000X0.300000X-0.300000X0.300000X0*%
%ADD41RoundRect,0.062500X0.062500X-0.375000X0.062500X0.375000X-0.062500X0.375000X-0.062500X-0.375000X0*%
%ADD42RoundRect,0.062500X0.375000X-0.062500X0.375000X0.062500X-0.375000X0.062500X-0.375000X-0.062500X0*%
%ADD43R,2.150000X2.150000*%
%ADD44RoundRect,0.062500X0.375000X0.062500X-0.375000X0.062500X-0.375000X-0.062500X0.375000X-0.062500X0*%
%ADD45RoundRect,0.062500X0.062500X0.375000X-0.062500X0.375000X-0.062500X-0.375000X0.062500X-0.375000X0*%
%ADD46RoundRect,0.062500X-0.062500X0.375000X-0.062500X-0.375000X0.062500X-0.375000X0.062500X0.375000X0*%
%ADD47RoundRect,0.062500X-0.375000X0.062500X-0.375000X-0.062500X0.375000X-0.062500X0.375000X0.062500X0*%
%ADD48RoundRect,0.225000X0.225000X0.475000X-0.225000X0.475000X-0.225000X-0.475000X0.225000X-0.475000X0*%
%ADD49O,0.900000X1.400000*%
%ADD50RoundRect,0.225000X-0.225000X-0.475000X0.225000X-0.475000X0.225000X0.475000X-0.225000X0.475000X0*%
%ADD51RoundRect,0.300000X0.300000X0.300000X-0.300000X0.300000X-0.300000X-0.300000X0.300000X-0.300000X0*%
%ADD52RoundRect,0.062500X-0.375000X-0.062500X0.375000X-0.062500X0.375000X0.062500X-0.375000X0.062500X0*%
%ADD53RoundRect,0.062500X-0.062500X-0.375000X0.062500X-0.375000X0.062500X0.375000X-0.062500X0.375000X0*%
%ADD54RoundRect,0.300000X0.300000X-0.300000X0.300000X0.300000X-0.300000X0.300000X-0.300000X-0.300000X0*%
%ADD55RoundRect,0.250000X-0.650000X0.412500X-0.650000X-0.412500X0.650000X-0.412500X0.650000X0.412500X0*%
G04 APERTURE END LIST*
D10*
X205928684Y-64823466D02*
X205595350Y-64823466D01*
X205595350Y-64823466D02*
X205595350Y-65523466D01*
X206162017Y-65190133D02*
X206395351Y-65190133D01*
X206495351Y-64823466D02*
X206162017Y-64823466D01*
X206162017Y-64823466D02*
X206162017Y-65523466D01*
X206162017Y-65523466D02*
X206495351Y-65523466D01*
X206795350Y-64823466D02*
X206795350Y-65523466D01*
X206795350Y-65523466D02*
X206962017Y-65523466D01*
X206962017Y-65523466D02*
X207062017Y-65490133D01*
X207062017Y-65490133D02*
X207128684Y-65423466D01*
X207128684Y-65423466D02*
X207162017Y-65356800D01*
X207162017Y-65356800D02*
X207195350Y-65223466D01*
X207195350Y-65223466D02*
X207195350Y-65123466D01*
X207195350Y-65123466D02*
X207162017Y-64990133D01*
X207162017Y-64990133D02*
X207128684Y-64923466D01*
X207128684Y-64923466D02*
X207062017Y-64856800D01*
X207062017Y-64856800D02*
X206962017Y-64823466D01*
X206962017Y-64823466D02*
X206795350Y-64823466D01*
X230206533Y-69628684D02*
X230206533Y-69762017D01*
X230206533Y-69762017D02*
X230239866Y-69828684D01*
X230239866Y-69828684D02*
X230306533Y-69895350D01*
X230306533Y-69895350D02*
X230439866Y-69928684D01*
X230439866Y-69928684D02*
X230673200Y-69928684D01*
X230673200Y-69928684D02*
X230806533Y-69895350D01*
X230806533Y-69895350D02*
X230873200Y-69828684D01*
X230873200Y-69828684D02*
X230906533Y-69762017D01*
X230906533Y-69762017D02*
X230906533Y-69628684D01*
X230906533Y-69628684D02*
X230873200Y-69562017D01*
X230873200Y-69562017D02*
X230806533Y-69495350D01*
X230806533Y-69495350D02*
X230673200Y-69462017D01*
X230673200Y-69462017D02*
X230439866Y-69462017D01*
X230439866Y-69462017D02*
X230306533Y-69495350D01*
X230306533Y-69495350D02*
X230239866Y-69562017D01*
X230239866Y-69562017D02*
X230206533Y-69628684D01*
X230873200Y-70195350D02*
X230906533Y-70295350D01*
X230906533Y-70295350D02*
X230906533Y-70462017D01*
X230906533Y-70462017D02*
X230873200Y-70528683D01*
X230873200Y-70528683D02*
X230839866Y-70562017D01*
X230839866Y-70562017D02*
X230773200Y-70595350D01*
X230773200Y-70595350D02*
X230706533Y-70595350D01*
X230706533Y-70595350D02*
X230639866Y-70562017D01*
X230639866Y-70562017D02*
X230606533Y-70528683D01*
X230606533Y-70528683D02*
X230573200Y-70462017D01*
X230573200Y-70462017D02*
X230539866Y-70328683D01*
X230539866Y-70328683D02*
X230506533Y-70262017D01*
X230506533Y-70262017D02*
X230473200Y-70228683D01*
X230473200Y-70228683D02*
X230406533Y-70195350D01*
X230406533Y-70195350D02*
X230339866Y-70195350D01*
X230339866Y-70195350D02*
X230273200Y-70228683D01*
X230273200Y-70228683D02*
X230239866Y-70262017D01*
X230239866Y-70262017D02*
X230206533Y-70328683D01*
X230206533Y-70328683D02*
X230206533Y-70495350D01*
X230206533Y-70495350D02*
X230239866Y-70595350D01*
X230906533Y-70895350D02*
X230206533Y-70895350D01*
X230206533Y-70895350D02*
X230206533Y-71062017D01*
X230206533Y-71062017D02*
X230239866Y-71162017D01*
X230239866Y-71162017D02*
X230306533Y-71228684D01*
X230306533Y-71228684D02*
X230373200Y-71262017D01*
X230373200Y-71262017D02*
X230506533Y-71295350D01*
X230506533Y-71295350D02*
X230606533Y-71295350D01*
X230606533Y-71295350D02*
X230739866Y-71262017D01*
X230739866Y-71262017D02*
X230806533Y-71228684D01*
X230806533Y-71228684D02*
X230873200Y-71162017D01*
X230873200Y-71162017D02*
X230906533Y-71062017D01*
X230906533Y-71062017D02*
X230906533Y-70895350D01*
X200126533Y-88035350D02*
X200693200Y-88035350D01*
X200693200Y-88035350D02*
X200759866Y-88068684D01*
X200759866Y-88068684D02*
X200793200Y-88102017D01*
X200793200Y-88102017D02*
X200826533Y-88168684D01*
X200826533Y-88168684D02*
X200826533Y-88302017D01*
X200826533Y-88302017D02*
X200793200Y-88368684D01*
X200793200Y-88368684D02*
X200759866Y-88402017D01*
X200759866Y-88402017D02*
X200693200Y-88435350D01*
X200693200Y-88435350D02*
X200126533Y-88435350D01*
X200626533Y-88735350D02*
X200626533Y-89068683D01*
X200826533Y-88668683D02*
X200126533Y-88902017D01*
X200126533Y-88902017D02*
X200826533Y-89135350D01*
X200826533Y-89768683D02*
X200493200Y-89535350D01*
X200826533Y-89368683D02*
X200126533Y-89368683D01*
X200126533Y-89368683D02*
X200126533Y-89635350D01*
X200126533Y-89635350D02*
X200159866Y-89702017D01*
X200159866Y-89702017D02*
X200193200Y-89735350D01*
X200193200Y-89735350D02*
X200259866Y-89768683D01*
X200259866Y-89768683D02*
X200359866Y-89768683D01*
X200359866Y-89768683D02*
X200426533Y-89735350D01*
X200426533Y-89735350D02*
X200459866Y-89702017D01*
X200459866Y-89702017D02*
X200493200Y-89635350D01*
X200493200Y-89635350D02*
X200493200Y-89368683D01*
X200126533Y-89968683D02*
X200126533Y-90368683D01*
X200826533Y-90168683D02*
X200126533Y-90168683D01*
X200359866Y-90902016D02*
X200826533Y-90902016D01*
X200093200Y-90735350D02*
X200593200Y-90568683D01*
X200593200Y-90568683D02*
X200593200Y-91002016D01*
X224211250Y-94739966D02*
X224211250Y-95439966D01*
X224511250Y-95373300D02*
X224544583Y-95406633D01*
X224544583Y-95406633D02*
X224611250Y-95439966D01*
X224611250Y-95439966D02*
X224777917Y-95439966D01*
X224777917Y-95439966D02*
X224844583Y-95406633D01*
X224844583Y-95406633D02*
X224877917Y-95373300D01*
X224877917Y-95373300D02*
X224911250Y-95306633D01*
X224911250Y-95306633D02*
X224911250Y-95239966D01*
X224911250Y-95239966D02*
X224877917Y-95139966D01*
X224877917Y-95139966D02*
X224477917Y-94739966D01*
X224477917Y-94739966D02*
X224911250Y-94739966D01*
X225611250Y-94806633D02*
X225577917Y-94773300D01*
X225577917Y-94773300D02*
X225477917Y-94739966D01*
X225477917Y-94739966D02*
X225411250Y-94739966D01*
X225411250Y-94739966D02*
X225311250Y-94773300D01*
X225311250Y-94773300D02*
X225244584Y-94839966D01*
X225244584Y-94839966D02*
X225211250Y-94906633D01*
X225211250Y-94906633D02*
X225177917Y-95039966D01*
X225177917Y-95039966D02*
X225177917Y-95139966D01*
X225177917Y-95139966D02*
X225211250Y-95273300D01*
X225211250Y-95273300D02*
X225244584Y-95339966D01*
X225244584Y-95339966D02*
X225311250Y-95406633D01*
X225311250Y-95406633D02*
X225411250Y-95439966D01*
X225411250Y-95439966D02*
X225477917Y-95439966D01*
X225477917Y-95439966D02*
X225577917Y-95406633D01*
X225577917Y-95406633D02*
X225611250Y-95373300D01*
X225877917Y-95373300D02*
X225911250Y-95406633D01*
X225911250Y-95406633D02*
X225977917Y-95439966D01*
X225977917Y-95439966D02*
X226144584Y-95439966D01*
X226144584Y-95439966D02*
X226211250Y-95406633D01*
X226211250Y-95406633D02*
X226244584Y-95373300D01*
X226244584Y-95373300D02*
X226277917Y-95306633D01*
X226277917Y-95306633D02*
X226277917Y-95239966D01*
X226277917Y-95239966D02*
X226244584Y-95139966D01*
X226244584Y-95139966D02*
X225844584Y-94739966D01*
X225844584Y-94739966D02*
X226277917Y-94739966D01*
D11*
X203749300Y-67181700D02*
G75*
G02*
X201199300Y-67181700I-1275000J0D01*
G01*
X201199300Y-67181700D02*
G75*
G02*
X203749300Y-67181700I1275000J0D01*
G01*
X203749300Y-93181700D02*
G75*
G02*
X201199300Y-93181700I-1275000J0D01*
G01*
X201199300Y-93181700D02*
G75*
G02*
X203749300Y-93181700I1275000J0D01*
G01*
X229749300Y-67181700D02*
G75*
G02*
X227199300Y-67181700I-1275000J0D01*
G01*
X227199300Y-67181700D02*
G75*
G02*
X229749300Y-67181700I1275000J0D01*
G01*
X229749300Y-93181700D02*
G75*
G02*
X227199300Y-93181700I-1275000J0D01*
G01*
X227199300Y-93181700D02*
G75*
G02*
X229749300Y-93181700I1275000J0D01*
G01*
D12*
X212167900Y-74385835D02*
X212167900Y-74154165D01*
X212887900Y-74385835D02*
X212887900Y-74154165D01*
X206757700Y-96158335D02*
X206757700Y-95926665D01*
X207477700Y-96158335D02*
X207477700Y-95926665D01*
X218940500Y-78547500D02*
X218940500Y-79047500D01*
X218940500Y-81867500D02*
X218940500Y-81367500D01*
X219440500Y-78547500D02*
X218940500Y-78547500D01*
X219440500Y-81867500D02*
X218940500Y-81867500D01*
X221760500Y-78547500D02*
X222260500Y-78547500D01*
X222260500Y-78547500D02*
X222260500Y-79047500D01*
X222260500Y-81367500D02*
X222260500Y-81867500D01*
X205696300Y-92312721D02*
X205696300Y-91977479D01*
X206456300Y-92312721D02*
X206456300Y-91977479D01*
X229791300Y-89186900D02*
X232451300Y-89186900D01*
X229791300Y-90886900D02*
X232451300Y-90886900D01*
X232451300Y-90886900D02*
X232451300Y-89186900D01*
X210877900Y-92388921D02*
X210877900Y-92053679D01*
X211637900Y-92388921D02*
X211637900Y-92053679D01*
X217720500Y-71402621D02*
X217720500Y-71067379D01*
X218480500Y-71402621D02*
X218480500Y-71067379D01*
X215770500Y-71377621D02*
X215770500Y-71042379D01*
X216530500Y-71377621D02*
X216530500Y-71042379D01*
X203380779Y-71953100D02*
X203716021Y-71953100D01*
X203380779Y-72713100D02*
X203716021Y-72713100D01*
X198471900Y-73337300D02*
X198471900Y-75037300D01*
X201131900Y-73337300D02*
X198471900Y-73337300D01*
X201131900Y-75037300D02*
X198471900Y-75037300D01*
D13*
X200999700Y-86886900D02*
X201299700Y-86886900D01*
X200999700Y-90486900D02*
X200999700Y-86886900D01*
X201299700Y-90486900D02*
X200999700Y-90486900D01*
X204299700Y-90486900D02*
X204599700Y-90486900D01*
X204599700Y-86886900D02*
X204299700Y-86886900D01*
X204599700Y-90486900D02*
X204599700Y-86886900D01*
X204120411Y-90736900D02*
G75*
G02*
X203978989Y-90736900I-70711J0D01*
G01*
X203978989Y-90736900D02*
G75*
G02*
X204120411Y-90736900I70711J0D01*
G01*
D12*
X212439900Y-94473300D02*
X212439900Y-97133300D01*
X212439900Y-97133300D02*
X214139900Y-97133300D01*
X214139900Y-94473300D02*
X214139900Y-97133300D01*
X221623565Y-75797500D02*
X221855235Y-75797500D01*
X221623565Y-76517500D02*
X221855235Y-76517500D01*
D13*
X209123900Y-65681700D02*
X209123900Y-65981700D01*
X209123900Y-69281700D02*
X209123900Y-68981700D01*
X212723900Y-65681700D02*
X209123900Y-65681700D01*
X212723900Y-65981700D02*
X212723900Y-65681700D01*
X212723900Y-68981700D02*
X212723900Y-69281700D01*
X212723900Y-69281700D02*
X209123900Y-69281700D01*
X213044611Y-66231700D02*
G75*
G02*
X212903189Y-66231700I-70711J0D01*
G01*
X212903189Y-66231700D02*
G75*
G02*
X213044611Y-66231700I70711J0D01*
G01*
D12*
X195825500Y-82822500D02*
X200535500Y-82822500D01*
X195825500Y-88442500D02*
X195825500Y-82822500D01*
X197025500Y-87892500D02*
X197025500Y-83372500D01*
X198525500Y-87892500D02*
X198525500Y-83372500D01*
X200485500Y-85382500D02*
X200535500Y-85382500D01*
X200485500Y-86632500D02*
X200535500Y-86632500D01*
X200485500Y-87132500D02*
X200535500Y-87132500D01*
X200535500Y-82822500D02*
X200535500Y-84132500D01*
X200535500Y-83372500D02*
X195825500Y-83372500D01*
X200535500Y-84132500D02*
X200485500Y-84132500D01*
X200535500Y-84632500D02*
X200485500Y-84632500D01*
X200535500Y-85382500D02*
X200535500Y-84632500D01*
X200535500Y-85882500D02*
X200485500Y-85882500D01*
X200535500Y-86632500D02*
X200535500Y-85882500D01*
X200535500Y-87132500D02*
X200535500Y-88442500D01*
X200535500Y-87892500D02*
X195825500Y-87892500D01*
X200535500Y-88442500D02*
X195825500Y-88442500D01*
X201025500Y-84382500D02*
X201625500Y-84682500D01*
X201625500Y-84082500D02*
X201025500Y-84382500D01*
X201625500Y-84682500D02*
X201625500Y-84082500D01*
X199472379Y-76220000D02*
X199807621Y-76220000D01*
X199472379Y-76980000D02*
X199807621Y-76980000D01*
X198490500Y-77198100D02*
X198490500Y-78898100D01*
X201150500Y-77198100D02*
X198490500Y-77198100D01*
X201150500Y-78898100D02*
X198490500Y-78898100D01*
X210542300Y-96138335D02*
X210542300Y-95906665D01*
X211262300Y-96138335D02*
X211262300Y-95906665D01*
X206560379Y-82277500D02*
X206895621Y-82277500D01*
X206560379Y-83037500D02*
X206895621Y-83037500D01*
X203406179Y-70225900D02*
X203741421Y-70225900D01*
X203406179Y-70985900D02*
X203741421Y-70985900D01*
D13*
X218199300Y-91056300D02*
X221799300Y-91056300D01*
X218199300Y-91356300D02*
X218199300Y-91056300D01*
X218199300Y-94356300D02*
X218199300Y-94656300D01*
X218199300Y-94656300D02*
X221799300Y-94656300D01*
X221799300Y-91056300D02*
X221799300Y-91356300D01*
X221799300Y-94656300D02*
X221799300Y-94356300D01*
X218020011Y-94106300D02*
G75*
G02*
X217878589Y-94106300I-70711J0D01*
G01*
X217878589Y-94106300D02*
G75*
G02*
X218020011Y-94106300I70711J0D01*
G01*
D12*
X199511665Y-71388900D02*
X199743335Y-71388900D01*
X199511665Y-72108900D02*
X199743335Y-72108900D01*
X231204165Y-88229100D02*
X231435835Y-88229100D01*
X231204165Y-88949100D02*
X231435835Y-88949100D01*
X227782771Y-89352100D02*
X227447529Y-89352100D01*
X227782771Y-90112100D02*
X227447529Y-90112100D01*
X231439735Y-80024900D02*
X231208065Y-80024900D01*
X231439735Y-80744900D02*
X231208065Y-80744900D01*
X229791300Y-81490700D02*
X232451300Y-81490700D01*
X229791300Y-83190700D02*
X232451300Y-83190700D01*
X232451300Y-83190700D02*
X232451300Y-81490700D01*
X231132379Y-79014300D02*
X231467621Y-79014300D01*
X231132379Y-79774300D02*
X231467621Y-79774300D01*
X224820521Y-79452700D02*
X224485279Y-79452700D01*
X224820521Y-80212700D02*
X224485279Y-80212700D01*
X198488700Y-69476500D02*
X198488700Y-71176500D01*
X201148700Y-69476500D02*
X198488700Y-69476500D01*
X201148700Y-71176500D02*
X198488700Y-71176500D01*
X199509665Y-79572500D02*
X199741335Y-79572500D01*
X199509665Y-80292500D02*
X199741335Y-80292500D01*
X199472379Y-72359500D02*
X199807621Y-72359500D01*
X199472379Y-73119500D02*
X199807621Y-73119500D01*
X208629900Y-94507500D02*
X208629900Y-97167500D01*
X208629900Y-97167500D02*
X210329900Y-97167500D01*
X210329900Y-94507500D02*
X210329900Y-97167500D01*
X220692465Y-83822500D02*
X220924135Y-83822500D01*
X220692465Y-84542500D02*
X220924135Y-84542500D01*
X207448900Y-92363521D02*
X207448900Y-92028279D01*
X208208900Y-92363521D02*
X208208900Y-92028279D01*
X210447565Y-75833900D02*
X210679235Y-75833900D01*
X210447565Y-76553900D02*
X210679235Y-76553900D01*
X203380779Y-73781900D02*
X203716021Y-73781900D01*
X203380779Y-74541900D02*
X203716021Y-74541900D01*
X219290500Y-86224165D02*
X219290500Y-86455835D01*
X220010500Y-86224165D02*
X220010500Y-86455835D01*
X211167500Y-85352135D02*
X211167500Y-85120465D01*
X211887500Y-85352135D02*
X211887500Y-85120465D01*
X227732321Y-87602500D02*
X227397079Y-87602500D01*
X227732321Y-88362500D02*
X227397079Y-88362500D01*
D13*
X200939100Y-79030100D02*
X200939100Y-82630100D01*
X200939100Y-82630100D02*
X201239100Y-82630100D01*
X201239100Y-79030100D02*
X200939100Y-79030100D01*
X204239100Y-79030100D02*
X204539100Y-79030100D01*
X204539100Y-79030100D02*
X204539100Y-82630100D01*
X204539100Y-82630100D02*
X204239100Y-82630100D01*
X201559811Y-78780100D02*
G75*
G02*
X201418389Y-78780100I-70711J0D01*
G01*
X201418389Y-78780100D02*
G75*
G02*
X201559811Y-78780100I70711J0D01*
G01*
X214283900Y-91030900D02*
X217883900Y-91030900D01*
X214283900Y-91330900D02*
X214283900Y-91030900D01*
X214283900Y-94330900D02*
X214283900Y-94630900D01*
X214283900Y-94630900D02*
X217883900Y-94630900D01*
X217883900Y-91030900D02*
X217883900Y-91330900D01*
X217883900Y-94630900D02*
X217883900Y-94330900D01*
X214104611Y-94080900D02*
G75*
G02*
X213963189Y-94080900I-70711J0D01*
G01*
X213963189Y-94080900D02*
G75*
G02*
X214104611Y-94080900I70711J0D01*
G01*
D12*
X216783300Y-65873300D02*
X216783300Y-63213300D01*
X218483300Y-63213300D02*
X216783300Y-63213300D01*
X218483300Y-65873300D02*
X218483300Y-63213300D01*
X214190000Y-64527621D02*
X214190000Y-64192379D01*
X214950000Y-64527621D02*
X214950000Y-64192379D01*
X203368279Y-76382500D02*
X203703521Y-76382500D01*
X203368279Y-77142500D02*
X203703521Y-77142500D01*
X224803021Y-82427700D02*
X224467779Y-82427700D01*
X224803021Y-83187700D02*
X224467779Y-83187700D01*
X206893121Y-77377500D02*
X206557879Y-77377500D01*
X206893121Y-78137500D02*
X206557879Y-78137500D01*
X218340500Y-86231665D02*
X218340500Y-86463335D01*
X219060500Y-86231665D02*
X219060500Y-86463335D01*
X231214165Y-84390000D02*
X231445835Y-84390000D01*
X231214165Y-85110000D02*
X231445835Y-85110000D01*
X211852900Y-92388921D02*
X211852900Y-92053679D01*
X212612900Y-92388921D02*
X212612900Y-92053679D01*
X219254500Y-74935065D02*
X219254500Y-75166735D01*
X219974500Y-74935065D02*
X219974500Y-75166735D01*
X214390000Y-96135835D02*
X214390000Y-95904165D01*
X215110000Y-96135835D02*
X215110000Y-95904165D01*
X209176100Y-92363521D02*
X209176100Y-92028279D01*
X209936100Y-92363521D02*
X209936100Y-92028279D01*
D13*
X226415300Y-77760100D02*
X226715300Y-77760100D01*
X226415300Y-81360100D02*
X226415300Y-77760100D01*
X226715300Y-81360100D02*
X226415300Y-81360100D01*
X229715300Y-81360100D02*
X230015300Y-81360100D01*
X230015300Y-77760100D02*
X229715300Y-77760100D01*
X230015300Y-81360100D02*
X230015300Y-77760100D01*
X229536011Y-81610100D02*
G75*
G02*
X229394589Y-81610100I-70711J0D01*
G01*
X229394589Y-81610100D02*
G75*
G02*
X229536011Y-81610100I70711J0D01*
G01*
D12*
X206893121Y-79352500D02*
X206557879Y-79352500D01*
X206893121Y-80112500D02*
X206557879Y-80112500D01*
X206560379Y-78377500D02*
X206895621Y-78377500D01*
X206560379Y-79137500D02*
X206895621Y-79137500D01*
X206890621Y-80302500D02*
X206555379Y-80302500D01*
X206890621Y-81062500D02*
X206555379Y-81062500D01*
X213595500Y-89297621D02*
X213595500Y-88962379D01*
X214355500Y-89297621D02*
X214355500Y-88962379D01*
X203380779Y-75407500D02*
X203716021Y-75407500D01*
X203380779Y-76167500D02*
X203716021Y-76167500D01*
X224479500Y-65882500D02*
X224479500Y-63222500D01*
X226179500Y-63222500D02*
X224479500Y-63222500D01*
X226179500Y-65882500D02*
X226179500Y-63222500D01*
X217645500Y-88939879D02*
X217645500Y-89275121D01*
X218405500Y-88939879D02*
X218405500Y-89275121D01*
X220640679Y-82824300D02*
X220975921Y-82824300D01*
X220640679Y-83584300D02*
X220975921Y-83584300D01*
X229808100Y-85326100D02*
X232468100Y-85326100D01*
X229808100Y-87026100D02*
X232468100Y-87026100D01*
X232468100Y-87026100D02*
X232468100Y-85326100D01*
D13*
X226404900Y-73852545D02*
X226704900Y-73852545D01*
X226404900Y-77452545D02*
X226404900Y-73852545D01*
X226704900Y-77452545D02*
X226404900Y-77452545D01*
X229704900Y-77452545D02*
X230004900Y-77452545D01*
X230004900Y-73852545D02*
X229704900Y-73852545D01*
X230004900Y-77452545D02*
X230004900Y-73852545D01*
X229525611Y-77702545D02*
G75*
G02*
X229384189Y-77702545I-70711J0D01*
G01*
X229384189Y-77702545D02*
G75*
G02*
X229525611Y-77702545I70711J0D01*
G01*
D12*
X203368279Y-77347700D02*
X203703521Y-77347700D01*
X203368279Y-78107700D02*
X203703521Y-78107700D01*
X212595500Y-88962379D02*
X212595500Y-89297621D01*
X213355500Y-88962379D02*
X213355500Y-89297621D01*
X229350900Y-75746900D02*
X229350900Y-76346900D01*
X229350900Y-76346900D02*
X229950900Y-76046900D01*
X229950900Y-76046900D02*
X229350900Y-75746900D01*
X230440900Y-71986900D02*
X235150900Y-71986900D01*
X230440900Y-72536900D02*
X235150900Y-72536900D01*
X230440900Y-73296900D02*
X230440900Y-71986900D01*
X230440900Y-73796900D02*
X230440900Y-74546900D01*
X230440900Y-74546900D02*
X230490900Y-74546900D01*
X230440900Y-75046900D02*
X230440900Y-75796900D01*
X230440900Y-75796900D02*
X230490900Y-75796900D01*
X230440900Y-76296900D02*
X230490900Y-76296900D01*
X230440900Y-77056900D02*
X235150900Y-77056900D01*
X230440900Y-77606900D02*
X230440900Y-76296900D01*
X230490900Y-73296900D02*
X230440900Y-73296900D01*
X230490900Y-73796900D02*
X230440900Y-73796900D01*
X230490900Y-75046900D02*
X230440900Y-75046900D01*
X232450900Y-72536900D02*
X232450900Y-77056900D01*
X233950900Y-72536900D02*
X233950900Y-77056900D01*
X235150900Y-71986900D02*
X235150900Y-77606900D01*
X235150900Y-77606900D02*
X230440900Y-77606900D01*
X208930000Y-79020000D02*
X208930000Y-78520000D01*
X208930000Y-81840000D02*
X208930000Y-81340000D01*
X209430000Y-81840000D02*
X208930000Y-81840000D01*
X211750000Y-78520000D02*
X212250000Y-78520000D01*
X211750000Y-81840000D02*
X212250000Y-81840000D01*
X212250000Y-78520000D02*
X212250000Y-79020000D01*
X212250000Y-81840000D02*
X212250000Y-81340000D01*
X231477621Y-83408500D02*
X231142379Y-83408500D01*
X231477621Y-84168500D02*
X231142379Y-84168500D01*
X214645500Y-88964879D02*
X214645500Y-89300121D01*
X215405500Y-88964879D02*
X215405500Y-89300121D01*
X227732321Y-85923100D02*
X227397079Y-85923100D01*
X227732321Y-86683100D02*
X227397079Y-86683100D01*
X227744421Y-83220900D02*
X227409179Y-83220900D01*
X227744421Y-83980900D02*
X227409179Y-83980900D01*
D13*
X213031345Y-65681700D02*
X213031345Y-65981700D01*
X213031345Y-69281700D02*
X213031345Y-68981700D01*
X216631345Y-65681700D02*
X213031345Y-65681700D01*
X216631345Y-65981700D02*
X216631345Y-65681700D01*
X216631345Y-68981700D02*
X216631345Y-69281700D01*
X216631345Y-69281700D02*
X213031345Y-69281700D01*
X216952056Y-66231700D02*
G75*
G02*
X216810634Y-66231700I-70711J0D01*
G01*
X216810634Y-66231700D02*
G75*
G02*
X216952056Y-66231700I70711J0D01*
G01*
D12*
X220890000Y-70640000D02*
X220890000Y-71115000D01*
X220890000Y-74860000D02*
X220890000Y-74385000D01*
X221365000Y-70640000D02*
X220890000Y-70640000D01*
X221365000Y-74860000D02*
X220890000Y-74860000D01*
X224635000Y-70640000D02*
X225110000Y-70640000D01*
X225110000Y-70640000D02*
X225110000Y-71115000D01*
X225110000Y-74860000D02*
X225110000Y-74385000D01*
X224465279Y-80468700D02*
X224800521Y-80468700D01*
X224465279Y-81228700D02*
X224800521Y-81228700D01*
X206150000Y-70680000D02*
X206625000Y-70680000D01*
X206150000Y-71155000D02*
X206150000Y-70680000D01*
X206150000Y-74425000D02*
X206150000Y-74900000D01*
X206150000Y-74900000D02*
X206625000Y-74900000D01*
X210370000Y-70680000D02*
X209895000Y-70680000D01*
X210370000Y-74425000D02*
X210370000Y-74900000D01*
X210370000Y-74900000D02*
X209895000Y-74900000D01*
X206130000Y-85530000D02*
X206130000Y-86005000D01*
X206130000Y-89750000D02*
X206130000Y-89275000D01*
X206605000Y-89750000D02*
X206130000Y-89750000D01*
X209875000Y-85530000D02*
X210350000Y-85530000D01*
X209875000Y-89750000D02*
X210350000Y-89750000D01*
X210350000Y-85530000D02*
X210350000Y-86005000D01*
X210350000Y-89750000D02*
X210350000Y-89275000D01*
X204819900Y-94473300D02*
X204819900Y-97133300D01*
X204819900Y-97133300D02*
X206519900Y-97133300D01*
X206519900Y-94473300D02*
X206519900Y-97133300D01*
X224482779Y-77477700D02*
X224818021Y-77477700D01*
X224482779Y-78237700D02*
X224818021Y-78237700D01*
D13*
X205194500Y-65681700D02*
X208794500Y-65681700D01*
X205194500Y-65981700D02*
X205194500Y-65681700D01*
X205194500Y-68981700D02*
X205194500Y-69281700D01*
X205194500Y-69281700D02*
X208794500Y-69281700D01*
X208794500Y-65681700D02*
X208794500Y-65981700D01*
X208794500Y-69281700D02*
X208794500Y-68981700D01*
X205015211Y-68731700D02*
G75*
G02*
X204873789Y-68731700I-70711J0D01*
G01*
X204873789Y-68731700D02*
G75*
G02*
X205015211Y-68731700I70711J0D01*
G01*
D12*
X211487500Y-95842379D02*
X211487500Y-96177621D01*
X212247500Y-95842379D02*
X212247500Y-96177621D01*
X231467621Y-87240000D02*
X231132379Y-87240000D01*
X231467621Y-88000000D02*
X231132379Y-88000000D01*
X216645500Y-89275121D02*
X216645500Y-88939879D01*
X217405500Y-89275121D02*
X217405500Y-88939879D01*
D13*
X222145900Y-91046500D02*
X222145900Y-91346500D01*
X222145900Y-94646500D02*
X222145900Y-94346500D01*
X225745900Y-91046500D02*
X222145900Y-91046500D01*
X225745900Y-91346500D02*
X225745900Y-91046500D01*
X225745900Y-94346500D02*
X225745900Y-94646500D01*
X225745900Y-94646500D02*
X222145900Y-94646500D01*
X226066611Y-91596500D02*
G75*
G02*
X225925189Y-91596500I-70711J0D01*
G01*
X225925189Y-91596500D02*
G75*
G02*
X226066611Y-91596500I70711J0D01*
G01*
D12*
X219437700Y-67897379D02*
X219437700Y-68232621D01*
X220197700Y-67897379D02*
X220197700Y-68232621D01*
X221623565Y-76797500D02*
X221855235Y-76797500D01*
X221623565Y-77517500D02*
X221855235Y-77517500D01*
X214795500Y-71044879D02*
X214795500Y-71380121D01*
X215555500Y-71044879D02*
X215555500Y-71380121D01*
X222550000Y-64527621D02*
X222550000Y-64192379D01*
X223310000Y-64527621D02*
X223310000Y-64192379D01*
X212827900Y-92363921D02*
X212827900Y-92028679D01*
X213587900Y-92363921D02*
X213587900Y-92028679D01*
X207340500Y-60532500D02*
X212960500Y-60532500D01*
X207340500Y-65242500D02*
X207340500Y-60532500D01*
X207890500Y-61732500D02*
X212410500Y-61732500D01*
X207890500Y-63232500D02*
X212410500Y-63232500D01*
X207890500Y-65242500D02*
X207890500Y-60532500D01*
X208650500Y-65192500D02*
X208650500Y-65242500D01*
X208650500Y-65242500D02*
X207340500Y-65242500D01*
X209150500Y-65192500D02*
X209150500Y-65242500D01*
X209150500Y-65242500D02*
X209900500Y-65242500D01*
X209900500Y-65242500D02*
X209900500Y-65192500D01*
X210400500Y-65192500D02*
X210400500Y-65242500D01*
X210400500Y-65242500D02*
X211150500Y-65242500D01*
X211100500Y-66332500D02*
X211700500Y-66332500D01*
X211150500Y-65242500D02*
X211150500Y-65192500D01*
X211400500Y-65732500D02*
X211100500Y-66332500D01*
X211650500Y-65242500D02*
X211650500Y-65192500D01*
X211700500Y-66332500D02*
X211400500Y-65732500D01*
X212410500Y-65242500D02*
X212410500Y-60532500D01*
X212960500Y-60532500D02*
X212960500Y-65242500D01*
X212960500Y-65242500D02*
X211650500Y-65242500D01*
X227739521Y-82234700D02*
X227404279Y-82234700D01*
X227739521Y-82994700D02*
X227404279Y-82994700D01*
X223547100Y-64214165D02*
X223547100Y-64445835D01*
X224267100Y-64214165D02*
X224267100Y-64445835D01*
D13*
X226425100Y-69923500D02*
X226425100Y-73523500D01*
X226425100Y-73523500D02*
X226725100Y-73523500D01*
X226725100Y-69923500D02*
X226425100Y-69923500D01*
X229725100Y-69923500D02*
X230025100Y-69923500D01*
X230025100Y-69923500D02*
X230025100Y-73523500D01*
X230025100Y-73523500D02*
X229725100Y-73523500D01*
X227045811Y-69673500D02*
G75*
G02*
X226904389Y-69673500I-70711J0D01*
G01*
X226904389Y-69673500D02*
G75*
G02*
X227045811Y-69673500I70711J0D01*
G01*
D12*
X199810621Y-80527500D02*
X199475379Y-80527500D01*
X199810621Y-81287500D02*
X199475379Y-81287500D01*
X209548835Y-83822500D02*
X209317165Y-83822500D01*
X209548835Y-84542500D02*
X209317165Y-84542500D01*
X218243900Y-75193121D02*
X218243900Y-74857879D01*
X219003900Y-75193121D02*
X219003900Y-74857879D01*
X215140000Y-64224165D02*
X215140000Y-64455835D01*
X215860000Y-64224165D02*
X215860000Y-64455835D01*
X218015500Y-95072500D02*
X219325500Y-95072500D01*
X218015500Y-99782500D02*
X218015500Y-95072500D01*
X218565500Y-95072500D02*
X218565500Y-99782500D01*
X219275500Y-93982500D02*
X219575500Y-94582500D01*
X219325500Y-95072500D02*
X219325500Y-95122500D01*
X219575500Y-94582500D02*
X219875500Y-93982500D01*
X219825500Y-95072500D02*
X219825500Y-95122500D01*
X219875500Y-93982500D02*
X219275500Y-93982500D01*
X220575500Y-95072500D02*
X219825500Y-95072500D01*
X220575500Y-95122500D02*
X220575500Y-95072500D01*
X221075500Y-95072500D02*
X221075500Y-95122500D01*
X221825500Y-95072500D02*
X221075500Y-95072500D01*
X221825500Y-95122500D02*
X221825500Y-95072500D01*
X222325500Y-95072500D02*
X223635500Y-95072500D01*
X222325500Y-95122500D02*
X222325500Y-95072500D01*
X223085500Y-95072500D02*
X223085500Y-99782500D01*
X223085500Y-97082500D02*
X218565500Y-97082500D01*
X223085500Y-98582500D02*
X218565500Y-98582500D01*
X223635500Y-95072500D02*
X223635500Y-99782500D01*
X223635500Y-99782500D02*
X218015500Y-99782500D01*
X220970000Y-85457500D02*
X221445000Y-85457500D01*
X220970000Y-85932500D02*
X220970000Y-85457500D01*
X220970000Y-89677500D02*
X221445000Y-89677500D01*
X225190000Y-85457500D02*
X224715000Y-85457500D01*
X225190000Y-85932500D02*
X225190000Y-85457500D01*
X225190000Y-89202500D02*
X225190000Y-89677500D01*
X225190000Y-89677500D02*
X224715000Y-89677500D01*
X224817621Y-78477700D02*
X224482379Y-78477700D01*
X224817621Y-79237700D02*
X224482379Y-79237700D01*
X216745500Y-71042379D02*
X216745500Y-71377621D01*
X217505500Y-71042379D02*
X217505500Y-71377621D01*
X207677500Y-95852379D02*
X207677500Y-96187621D01*
X208437500Y-95852379D02*
X208437500Y-96187621D01*
X199735835Y-75280000D02*
X199504165Y-75280000D01*
X199735835Y-76000000D02*
X199504165Y-76000000D01*
X213915500Y-73597500D02*
X214415500Y-73597500D01*
X213915500Y-74097500D02*
X213915500Y-73597500D01*
X213915500Y-76417500D02*
X213915500Y-76917500D01*
X213915500Y-76917500D02*
X214415500Y-76917500D01*
X216735500Y-73597500D02*
X217235500Y-73597500D01*
X217235500Y-76417500D02*
X217235500Y-76917500D01*
X217235500Y-76917500D02*
X216735500Y-76917500D01*
X223069900Y-67872879D02*
X223069900Y-68208121D01*
X223829900Y-67872879D02*
X223829900Y-68208121D01*
X213900000Y-83520000D02*
X214400000Y-83520000D01*
X213900000Y-84020000D02*
X213900000Y-83520000D01*
X214400000Y-86840000D02*
X213900000Y-86840000D01*
X217220000Y-83520000D02*
X216720000Y-83520000D01*
X217220000Y-84020000D02*
X217220000Y-83520000D01*
X217220000Y-86340000D02*
X217220000Y-86840000D01*
X217220000Y-86840000D02*
X216720000Y-86840000D01*
X224716545Y-67859579D02*
X224716545Y-68194821D01*
X225476545Y-67859579D02*
X225476545Y-68194821D01*
X213477900Y-80918752D02*
X213477900Y-79496248D01*
X215297900Y-80918752D02*
X215297900Y-79496248D01*
X221190300Y-67872379D02*
X221190300Y-68207621D01*
X221950300Y-67872379D02*
X221950300Y-68207621D01*
X210739721Y-76829900D02*
X210404479Y-76829900D01*
X210739721Y-77589900D02*
X210404479Y-77589900D01*
X218472500Y-67897379D02*
X218472500Y-68232621D01*
X219232500Y-67897379D02*
X219232500Y-68232621D01*
X215645500Y-88962379D02*
X215645500Y-89297621D01*
X216405500Y-88962379D02*
X216405500Y-89297621D01*
X220644100Y-65882500D02*
X220644100Y-63222500D01*
X222344100Y-63222500D02*
X220644100Y-63222500D01*
X222344100Y-65882500D02*
X222344100Y-63222500D01*
X213795500Y-71375121D02*
X213795500Y-71039879D01*
X214555500Y-71375121D02*
X214555500Y-71039879D01*
X219711700Y-64209165D02*
X219711700Y-64440835D01*
X220431700Y-64209165D02*
X220431700Y-64440835D01*
X211215500Y-74390835D02*
X211215500Y-74159165D01*
X211935500Y-74390835D02*
X211935500Y-74159165D01*
X212122500Y-85056579D02*
X212122500Y-85391821D01*
X212882500Y-85056579D02*
X212882500Y-85391821D01*
X224798021Y-81452700D02*
X224462779Y-81452700D01*
X224798021Y-82212700D02*
X224462779Y-82212700D01*
X215348300Y-95842379D02*
X215348300Y-96177621D01*
X216108300Y-95842379D02*
X216108300Y-96177621D01*
D13*
X200958700Y-82965700D02*
X200958700Y-86565700D01*
X200958700Y-86565700D02*
X201258700Y-86565700D01*
X201258700Y-82965700D02*
X200958700Y-82965700D01*
X204258700Y-82965700D02*
X204558700Y-82965700D01*
X204558700Y-82965700D02*
X204558700Y-86565700D01*
X204558700Y-86565700D02*
X204258700Y-86565700D01*
X201579411Y-82715700D02*
G75*
G02*
X201437989Y-82715700I-70711J0D01*
G01*
X201437989Y-82715700D02*
G75*
G02*
X201579411Y-82715700I70711J0D01*
G01*
D12*
X212770500Y-71375121D02*
X212770500Y-71039879D01*
X213530500Y-71375121D02*
X213530500Y-71039879D01*
X227744421Y-84195900D02*
X227409179Y-84195900D01*
X227744421Y-84955900D02*
X227409179Y-84955900D01*
X206555379Y-81277500D02*
X206890621Y-81277500D01*
X206555379Y-82037500D02*
X206890621Y-82037500D01*
X217481500Y-67878979D02*
X217481500Y-68214221D01*
X218241500Y-67878979D02*
X218241500Y-68214221D01*
X209548835Y-82847500D02*
X209317165Y-82847500D01*
X209548835Y-83567500D02*
X209317165Y-83567500D01*
X218716700Y-64527621D02*
X218716700Y-64192379D01*
X219476700Y-64527621D02*
X219476700Y-64192379D01*
X215865500Y-80918752D02*
X215865500Y-79496248D01*
X217685500Y-80918752D02*
X217685500Y-79496248D01*
%LPC*%
D14*
X203700500Y-96457500D03*
X202450500Y-96457500D03*
X201200500Y-96457500D03*
X231755700Y-92088900D03*
X231755700Y-93338900D03*
X231755700Y-94588900D03*
X199150500Y-68582500D03*
X199150500Y-67332500D03*
X199150500Y-66082500D03*
X227220500Y-63832500D03*
X228470500Y-63832500D03*
X229720500Y-63832500D03*
D15*
X212527900Y-73702500D03*
X212527900Y-74837500D03*
X207117700Y-95475000D03*
X207117700Y-96610000D03*
D16*
X221850500Y-81457500D03*
D17*
X221350500Y-81757500D03*
X220850500Y-81757500D03*
X220350500Y-81757500D03*
X219850500Y-81757500D03*
D16*
X219350500Y-81457500D03*
D18*
X219050500Y-80957500D03*
X219050500Y-80457500D03*
X219050500Y-79957500D03*
X219050500Y-79457500D03*
D16*
X219350500Y-78957500D03*
D17*
X219850500Y-78657500D03*
X220350500Y-78657500D03*
X220850500Y-78657500D03*
X221350500Y-78657500D03*
D16*
X221850500Y-78957500D03*
D18*
X222150500Y-79457500D03*
X222150500Y-79957500D03*
X222150500Y-80457500D03*
X222150500Y-80957500D03*
D19*
X220600500Y-80207500D03*
D20*
X206076300Y-91547600D03*
X206076300Y-92742600D03*
D21*
X231891300Y-90036900D03*
X229791300Y-90036900D03*
D22*
X224154100Y-96336100D03*
X226654100Y-96336100D03*
X229154100Y-96336100D03*
X231654100Y-96336100D03*
D20*
X211257900Y-91623800D03*
X211257900Y-92818800D03*
X218100500Y-70637500D03*
X218100500Y-71832500D03*
X216150500Y-70612500D03*
X216150500Y-71807500D03*
D23*
X204145900Y-72333100D03*
X202950900Y-72333100D03*
D24*
X199031900Y-74187300D03*
X201131900Y-74187300D03*
D25*
X203774700Y-90222900D03*
X203124700Y-90222900D03*
D26*
X202799700Y-89346900D03*
D25*
X202474700Y-90222900D03*
X201824700Y-90222900D03*
D27*
X202799700Y-88131900D03*
D25*
X203124700Y-87150900D03*
X202474700Y-87150900D03*
X201824700Y-87150900D03*
X203774700Y-87150900D03*
D28*
X213289900Y-96573300D03*
X213289900Y-94473300D03*
D29*
X222306900Y-76157500D03*
X221171900Y-76157500D03*
D25*
X212459900Y-66506700D03*
X212459900Y-67156700D03*
D30*
X211583900Y-67481700D03*
D25*
X212459900Y-67806700D03*
X212459900Y-68456700D03*
D31*
X210368900Y-67481700D03*
D25*
X209387900Y-67156700D03*
X209387900Y-67806700D03*
X209387900Y-68456700D03*
X209387900Y-66506700D03*
D32*
X199525500Y-84382500D03*
D33*
X199525500Y-85632500D03*
X199525500Y-86882500D03*
D23*
X200237500Y-76600000D03*
X199042500Y-76600000D03*
D24*
X199050500Y-78048100D03*
X201150500Y-78048100D03*
D15*
X210902300Y-95455000D03*
X210902300Y-96590000D03*
D23*
X207325500Y-82657500D03*
X206130500Y-82657500D03*
X204171300Y-70605900D03*
X202976300Y-70605900D03*
D25*
X218463300Y-93831300D03*
X218463300Y-93181300D03*
D30*
X219339300Y-92856300D03*
D25*
X218463300Y-92531300D03*
X218463300Y-91881300D03*
D31*
X220554300Y-92856300D03*
D25*
X221535300Y-93181300D03*
X221535300Y-92531300D03*
X221535300Y-91881300D03*
X221535300Y-93831300D03*
D29*
X200195000Y-71748900D03*
X199060000Y-71748900D03*
X231887500Y-88589100D03*
X230752500Y-88589100D03*
D34*
X227017650Y-89732100D03*
X228212650Y-89732100D03*
D35*
X230756400Y-80384900D03*
X231891400Y-80384900D03*
D21*
X231891300Y-82340700D03*
X229791300Y-82340700D03*
D23*
X231897500Y-79394300D03*
X230702500Y-79394300D03*
D34*
X224055400Y-79832700D03*
X225250400Y-79832700D03*
D24*
X199048700Y-70326500D03*
X201148700Y-70326500D03*
D29*
X200193000Y-79932500D03*
X199058000Y-79932500D03*
D23*
X200237500Y-72739500D03*
X199042500Y-72739500D03*
D28*
X209479900Y-96607500D03*
X209479900Y-94507500D03*
D29*
X221375800Y-84182500D03*
X220240800Y-84182500D03*
D20*
X207828900Y-91598400D03*
X207828900Y-92793400D03*
D29*
X211130900Y-76193900D03*
X209995900Y-76193900D03*
D23*
X204145900Y-74161900D03*
X202950900Y-74161900D03*
D36*
X219650500Y-86907500D03*
X219650500Y-85772500D03*
D15*
X211527500Y-84668800D03*
X211527500Y-85803800D03*
D34*
X226967200Y-87982500D03*
X228162200Y-87982500D03*
D25*
X201764100Y-79294100D03*
X202414100Y-79294100D03*
D26*
X202739100Y-80170100D03*
D25*
X203064100Y-79294100D03*
X203714100Y-79294100D03*
D27*
X202739100Y-81385100D03*
D25*
X202414100Y-82366100D03*
X203064100Y-82366100D03*
X203714100Y-82366100D03*
X201764100Y-82366100D03*
X214547900Y-93805900D03*
X214547900Y-93155900D03*
D30*
X215423900Y-92830900D03*
D25*
X214547900Y-92505900D03*
X214547900Y-91855900D03*
D31*
X216638900Y-92830900D03*
D25*
X217619900Y-93155900D03*
X217619900Y-92505900D03*
X217619900Y-91855900D03*
X217619900Y-93805900D03*
D37*
X217633300Y-63773300D03*
X217633300Y-65873300D03*
D20*
X214570000Y-63762500D03*
X214570000Y-64957500D03*
D23*
X204133400Y-76762500D03*
X202938400Y-76762500D03*
D34*
X224037900Y-82807700D03*
X225232900Y-82807700D03*
X206128000Y-77757500D03*
X207323000Y-77757500D03*
D36*
X218700500Y-86915000D03*
X218700500Y-85780000D03*
D29*
X231897500Y-84750000D03*
X230762500Y-84750000D03*
D20*
X212232900Y-91623800D03*
X212232900Y-92818800D03*
D36*
X219614500Y-75618400D03*
X219614500Y-74483400D03*
D15*
X214750000Y-95452500D03*
X214750000Y-96587500D03*
D20*
X209556100Y-91598400D03*
X209556100Y-92793400D03*
D25*
X229190300Y-81096100D03*
X228540300Y-81096100D03*
D26*
X228215300Y-80220100D03*
D25*
X227890300Y-81096100D03*
X227240300Y-81096100D03*
D27*
X228215300Y-79005100D03*
D25*
X228540300Y-78024100D03*
X227890300Y-78024100D03*
X227240300Y-78024100D03*
X229190300Y-78024100D03*
D34*
X206128000Y-79732500D03*
X207323000Y-79732500D03*
D23*
X207325500Y-78757500D03*
X206130500Y-78757500D03*
D34*
X206125500Y-80682500D03*
X207320500Y-80682500D03*
D20*
X213975500Y-88532500D03*
X213975500Y-89727500D03*
D23*
X204145900Y-75787500D03*
X202950900Y-75787500D03*
D37*
X225329500Y-63782500D03*
X225329500Y-65882500D03*
D38*
X218025500Y-89705000D03*
X218025500Y-88510000D03*
D23*
X221405800Y-83204300D03*
X220210800Y-83204300D03*
D21*
X231908100Y-86176100D03*
X229808100Y-86176100D03*
D25*
X229179900Y-77188545D03*
X228529900Y-77188545D03*
D26*
X228204900Y-76312545D03*
D25*
X227879900Y-77188545D03*
X227229900Y-77188545D03*
D27*
X228204900Y-75097545D03*
D25*
X228529900Y-74116545D03*
X227879900Y-74116545D03*
X227229900Y-74116545D03*
X229179900Y-74116545D03*
D23*
X204133400Y-77727700D03*
X202938400Y-77727700D03*
D38*
X212975500Y-89727500D03*
X212975500Y-88532500D03*
D39*
X231450900Y-76046900D03*
D33*
X231450900Y-74796900D03*
X231450900Y-73546900D03*
D16*
X209340000Y-78930000D03*
D17*
X209840000Y-78630000D03*
X210340000Y-78630000D03*
X210840000Y-78630000D03*
X211340000Y-78630000D03*
D16*
X211840000Y-78930000D03*
D18*
X212140000Y-79430000D03*
X212140000Y-79930000D03*
X212140000Y-80430000D03*
X212140000Y-80930000D03*
D16*
X211840000Y-81430000D03*
D17*
X211340000Y-81730000D03*
X210840000Y-81730000D03*
X210340000Y-81730000D03*
X209840000Y-81730000D03*
D16*
X209340000Y-81430000D03*
D18*
X209040000Y-80930000D03*
X209040000Y-80430000D03*
X209040000Y-79930000D03*
X209040000Y-79430000D03*
D19*
X210590000Y-80180000D03*
D34*
X230712500Y-83788500D03*
X231907500Y-83788500D03*
D38*
X215025500Y-89730000D03*
X215025500Y-88535000D03*
D40*
X231650500Y-71485700D03*
X231650500Y-68985700D03*
X231650500Y-66485700D03*
X231650500Y-63985700D03*
D34*
X226967200Y-86303100D03*
X228162200Y-86303100D03*
X226979300Y-83600900D03*
X228174300Y-83600900D03*
D25*
X216367345Y-66506700D03*
X216367345Y-67156700D03*
D30*
X215491345Y-67481700D03*
D25*
X216367345Y-67806700D03*
X216367345Y-68456700D03*
D31*
X214276345Y-67481700D03*
D25*
X213295345Y-67156700D03*
X213295345Y-67806700D03*
X213295345Y-68456700D03*
X213295345Y-66506700D03*
D41*
X224250000Y-74687500D03*
X223750000Y-74687500D03*
X223250000Y-74687500D03*
X222750000Y-74687500D03*
X222250000Y-74687500D03*
X221750000Y-74687500D03*
D42*
X221062500Y-74000000D03*
X221062500Y-73500000D03*
X221062500Y-73000000D03*
X221062500Y-72500000D03*
X221062500Y-72000000D03*
X221062500Y-71500000D03*
D41*
X221750000Y-70812500D03*
X222250000Y-70812500D03*
X222750000Y-70812500D03*
X223250000Y-70812500D03*
X223750000Y-70812500D03*
X224250000Y-70812500D03*
D42*
X224937500Y-71500000D03*
X224937500Y-72000000D03*
X224937500Y-72500000D03*
X224937500Y-73000000D03*
X224937500Y-73500000D03*
X224937500Y-74000000D03*
D43*
X223000000Y-72750000D03*
D23*
X225230400Y-80848700D03*
X224035400Y-80848700D03*
D44*
X210197500Y-71540000D03*
X210197500Y-72040000D03*
X210197500Y-72540000D03*
X210197500Y-73040000D03*
X210197500Y-73540000D03*
X210197500Y-74040000D03*
D45*
X209510000Y-74727500D03*
X209010000Y-74727500D03*
X208510000Y-74727500D03*
X208010000Y-74727500D03*
X207510000Y-74727500D03*
X207010000Y-74727500D03*
D44*
X206322500Y-74040000D03*
X206322500Y-73540000D03*
X206322500Y-73040000D03*
X206322500Y-72540000D03*
X206322500Y-72040000D03*
X206322500Y-71540000D03*
D45*
X207010000Y-70852500D03*
X207510000Y-70852500D03*
X208010000Y-70852500D03*
X208510000Y-70852500D03*
X209010000Y-70852500D03*
X209510000Y-70852500D03*
D43*
X208260000Y-72790000D03*
D46*
X206990000Y-85702500D03*
X207490000Y-85702500D03*
X207990000Y-85702500D03*
X208490000Y-85702500D03*
X208990000Y-85702500D03*
X209490000Y-85702500D03*
D47*
X210177500Y-86390000D03*
X210177500Y-86890000D03*
X210177500Y-87390000D03*
X210177500Y-87890000D03*
X210177500Y-88390000D03*
X210177500Y-88890000D03*
D46*
X209490000Y-89577500D03*
X208990000Y-89577500D03*
X208490000Y-89577500D03*
X207990000Y-89577500D03*
X207490000Y-89577500D03*
X206990000Y-89577500D03*
D47*
X206302500Y-88890000D03*
X206302500Y-88390000D03*
X206302500Y-87890000D03*
X206302500Y-87390000D03*
X206302500Y-86890000D03*
X206302500Y-86390000D03*
D43*
X208240000Y-87640000D03*
D28*
X205669900Y-96573300D03*
X205669900Y-94473300D03*
D23*
X225247900Y-77857700D03*
X224052900Y-77857700D03*
D25*
X205458500Y-68456700D03*
X205458500Y-67806700D03*
D30*
X206334500Y-67481700D03*
D25*
X205458500Y-67156700D03*
X205458500Y-66506700D03*
D31*
X207549500Y-67481700D03*
D25*
X208530500Y-67806700D03*
X208530500Y-67156700D03*
X208530500Y-66506700D03*
X208530500Y-68456700D03*
D38*
X211867500Y-96607500D03*
X211867500Y-95412500D03*
D34*
X230702500Y-87620000D03*
X231897500Y-87620000D03*
D20*
X217025500Y-88510000D03*
X217025500Y-89705000D03*
D25*
X225481900Y-91871500D03*
X225481900Y-92521500D03*
D30*
X224605900Y-92846500D03*
D25*
X225481900Y-93171500D03*
X225481900Y-93821500D03*
D31*
X223390900Y-92846500D03*
D25*
X222409900Y-92521500D03*
X222409900Y-93171500D03*
X222409900Y-93821500D03*
X222409900Y-91871500D03*
D38*
X219817700Y-68662500D03*
X219817700Y-67467500D03*
D29*
X222306900Y-77157500D03*
X221171900Y-77157500D03*
D38*
X215175500Y-71810000D03*
X215175500Y-70615000D03*
D20*
X222930000Y-63762500D03*
X222930000Y-64957500D03*
X213207900Y-91598800D03*
X213207900Y-92793800D03*
D48*
X211400500Y-64232500D03*
D49*
X210150500Y-64232500D03*
X208900500Y-64232500D03*
D34*
X226974400Y-82614700D03*
X228169400Y-82614700D03*
D36*
X223907100Y-64897500D03*
X223907100Y-63762500D03*
D25*
X227250100Y-70187500D03*
X227900100Y-70187500D03*
D26*
X228225100Y-71063500D03*
D25*
X228550100Y-70187500D03*
X229200100Y-70187500D03*
D27*
X228225100Y-72278500D03*
D25*
X227900100Y-73259500D03*
X228550100Y-73259500D03*
X229200100Y-73259500D03*
X227250100Y-73259500D03*
D34*
X199045500Y-80907500D03*
X200240500Y-80907500D03*
D35*
X208865500Y-84182500D03*
X210000500Y-84182500D03*
D20*
X218623900Y-74428000D03*
X218623900Y-75623000D03*
D36*
X215500000Y-64907500D03*
X215500000Y-63772500D03*
D50*
X219575500Y-96082500D03*
D49*
X220825500Y-96082500D03*
X222075500Y-96082500D03*
D51*
X199300500Y-88826900D03*
X199300500Y-91326900D03*
X199300500Y-93826900D03*
X199300500Y-96326900D03*
D52*
X221142500Y-88817500D03*
X221142500Y-88317500D03*
X221142500Y-87817500D03*
X221142500Y-87317500D03*
X221142500Y-86817500D03*
X221142500Y-86317500D03*
D53*
X221830000Y-85630000D03*
X222330000Y-85630000D03*
X222830000Y-85630000D03*
X223330000Y-85630000D03*
X223830000Y-85630000D03*
X224330000Y-85630000D03*
D52*
X225017500Y-86317500D03*
X225017500Y-86817500D03*
X225017500Y-87317500D03*
X225017500Y-87817500D03*
X225017500Y-88317500D03*
X225017500Y-88817500D03*
D53*
X224330000Y-89505000D03*
X223830000Y-89505000D03*
X223330000Y-89505000D03*
X222830000Y-89505000D03*
X222330000Y-89505000D03*
X221830000Y-89505000D03*
D43*
X223080000Y-87567500D03*
D34*
X224052500Y-78857700D03*
X225247500Y-78857700D03*
D38*
X217125500Y-71807500D03*
X217125500Y-70612500D03*
X208057500Y-96617500D03*
X208057500Y-95422500D03*
D35*
X199052500Y-75640000D03*
X200187500Y-75640000D03*
D54*
X206780000Y-64010000D03*
X204280000Y-64010000D03*
X201780000Y-64010000D03*
X199280000Y-64010000D03*
D16*
X216825500Y-74007500D03*
D18*
X217125500Y-74507500D03*
X217125500Y-75007500D03*
X217125500Y-75507500D03*
X217125500Y-76007500D03*
D16*
X216825500Y-76507500D03*
D17*
X216325500Y-76807500D03*
X215825500Y-76807500D03*
X215325500Y-76807500D03*
X214825500Y-76807500D03*
D16*
X214325500Y-76507500D03*
D18*
X214025500Y-76007500D03*
X214025500Y-75507500D03*
X214025500Y-75007500D03*
X214025500Y-74507500D03*
D16*
X214325500Y-74007500D03*
D17*
X214825500Y-73707500D03*
X215325500Y-73707500D03*
X215825500Y-73707500D03*
X216325500Y-73707500D03*
D19*
X215575500Y-75257500D03*
D38*
X223449900Y-68638000D03*
X223449900Y-67443000D03*
D16*
X214310000Y-86430000D03*
D18*
X214010000Y-85930000D03*
X214010000Y-85430000D03*
X214010000Y-84930000D03*
X214010000Y-84430000D03*
D16*
X214310000Y-83930000D03*
D17*
X214810000Y-83630000D03*
X215310000Y-83630000D03*
X215810000Y-83630000D03*
X216310000Y-83630000D03*
D16*
X216810000Y-83930000D03*
D18*
X217110000Y-84430000D03*
X217110000Y-84930000D03*
X217110000Y-85430000D03*
X217110000Y-85930000D03*
D16*
X216810000Y-86430000D03*
D17*
X216310000Y-86730000D03*
X215810000Y-86730000D03*
X215310000Y-86730000D03*
X214810000Y-86730000D03*
D19*
X215560000Y-85180000D03*
D38*
X225096545Y-68624700D03*
X225096545Y-67429700D03*
D55*
X214387900Y-78645000D03*
X214387900Y-81770000D03*
D38*
X221570300Y-68637500D03*
X221570300Y-67442500D03*
D34*
X209974600Y-77209900D03*
X211169600Y-77209900D03*
D38*
X218852500Y-68662500D03*
X218852500Y-67467500D03*
X216025500Y-89727500D03*
X216025500Y-88532500D03*
D37*
X221494100Y-63782500D03*
X221494100Y-65882500D03*
D20*
X214175500Y-70610000D03*
X214175500Y-71805000D03*
D36*
X220071700Y-64892500D03*
X220071700Y-63757500D03*
D15*
X211575500Y-73707500D03*
X211575500Y-74842500D03*
D38*
X212502500Y-85821700D03*
X212502500Y-84626700D03*
D34*
X224032900Y-81832700D03*
X225227900Y-81832700D03*
D38*
X215728300Y-96607500D03*
X215728300Y-95412500D03*
D25*
X201783700Y-83229700D03*
X202433700Y-83229700D03*
D26*
X202758700Y-84105700D03*
D25*
X203083700Y-83229700D03*
X203733700Y-83229700D03*
D27*
X202758700Y-85320700D03*
D25*
X202433700Y-86301700D03*
X203083700Y-86301700D03*
X203733700Y-86301700D03*
X201783700Y-86301700D03*
D20*
X213150500Y-70610000D03*
X213150500Y-71805000D03*
D34*
X226979300Y-84575900D03*
X228174300Y-84575900D03*
D23*
X207320500Y-81657500D03*
X206125500Y-81657500D03*
D38*
X217861500Y-68644100D03*
X217861500Y-67449100D03*
D35*
X208865500Y-83207500D03*
X210000500Y-83207500D03*
D20*
X219096700Y-63762500D03*
X219096700Y-64957500D03*
D55*
X216775500Y-78645000D03*
X216775500Y-81770000D03*
%LPD*%
M02*
