M48
; DRILL file {KiCad 8.0.0-8.0.0-1~ubuntu22.04.1} date 2024-03-02T20:13:10+0700
; FORMAT={-:-/ absolute / metric / decimal}
; #@! TF.CreationDate,2024-03-02T20:13:10+07:00
; #@! TF.GenerationSoftware,Kicad,Pcbnew,8.0.0-8.0.0-1~ubuntu22.04.1
; #@! TF.FileFunction,Plated,1,8,PTH
FMAT,2
METRIC
; #@! TA.AperFunction,Plated,PTH,ViaDrill
T1C0.300
; #@! TA.AperFunction,Plated,PTH,ComponentDrill
T2C0.600
%
G90
G05
T1
X198.94Y-82.84
X198.97Y-64.94
X199.05Y-78.195
X199.07Y-92.36
X199.167Y-90.327
X199.28Y-78.76
X199.38Y-64.95
X199.43Y-69.64
X199.548Y-92.827
X199.58Y-94.9
X199.79Y-64.96
X200.183Y-69.641
X200.22Y-88.84
X200.23Y-89.24
X200.23Y-89.62
X200.25Y-96.75
X200.26Y-95.86
X200.26Y-96.31
X200.41Y-78.292
X200.421Y-78.692
X200.49Y-70.912
X200.54Y-63.912
X200.8Y-82.83
X200.945Y-84.347
X201.14Y-78.92
X201.2Y-89.123
X201.2Y-89.504
X201.2Y-89.885
X201.326Y-83.966
X201.326Y-84.347
X201.326Y-85.338
X201.55Y-86.35
X201.581Y-85.058
X201.581Y-85.592
X201.581Y-89.123
X201.581Y-89.504
X201.581Y-89.885
X201.6Y-83.256
X201.631Y-88.081
X201.707Y-83.941
X201.707Y-84.347
X201.72Y-71.16
X201.75Y-74.343
X201.755Y-73.959
X201.76Y-70.763
X201.84Y-78.52
X201.885Y-87.802
X201.885Y-88.361
X202.04Y-76.17
X202.04Y-77.51
X202.11Y-75.26
X202.16Y-76.9
X202.337Y-72.881
X202.47Y-75.13
X202.596Y-72.13
X202.79Y-63.802
X202.87Y-73.28
X203.105Y-81.604
X203.141Y-64.302
X203.18Y-79.24
X203.19Y-75.05
X203.2Y-79.64
X203.25Y-78.85
X203.361Y-70.792
X203.37Y-76.763
X203.37Y-77.602
X203.43Y-76.123
X203.486Y-81.604
X203.49Y-78.58
X203.56Y-71.802
X203.59Y-73.507
X203.71Y-82.4
X203.78Y-87.17
X203.82Y-71.252
X203.867Y-81.604
X203.89Y-78.49
X204.06Y-82.56
X204.07Y-64.983
X204.1Y-90.72
X204.2Y-73.01
X204.21Y-82.21
X204.46Y-82.55
X204.5Y-95.22
X204.504Y-69.118
X204.52Y-81.99
X204.53Y-78.87
X204.76Y-81.412
X204.81Y-65.182
X204.86Y-95.9
X204.95Y-68.712
X205.04Y-82.34
X205.06Y-87.07
X205.1Y-78.03
X205.11Y-64.91
X205.11Y-77.64
X205.111Y-79.552
X205.237Y-87.67
X205.31Y-88.27
X205.371Y-81.311
X205.39Y-64.62
X205.43Y-85.94
X205.44Y-86.56
X205.51Y-77.63
X205.52Y-78.04
X205.54Y-95.052
X205.56Y-66.14
X205.56Y-66.5
X205.56Y-66.87
X205.56Y-95.453
X205.56Y-95.862
X205.95Y-66.14
X205.95Y-95.052
X205.95Y-95.873
X205.96Y-66.52
X205.96Y-95.462
X205.97Y-66.91
X205.97Y-67.31
X205.98Y-74.89
X205.98Y-75.28
X205.99Y-75.68
X206.125Y-81.657
X206.18Y-79.66
X206.35Y-66.92
X206.35Y-95.873
X206.36Y-66.15
X206.37Y-66.53
X206.37Y-75.28
X206.37Y-95.462
X206.38Y-67.31
X206.38Y-74.88
X206.39Y-75.68
X206.48Y-79.87
X206.49Y-79.48
X206.53Y-93.57
X206.9Y-94.07
X207.13Y-84.61
X207.42Y-90.24
X207.58Y-87.74
X207.59Y-87.33
X207.6Y-86.9
X207.61Y-84.98
X207.69Y-77.02
X207.854Y-66.44
X207.854Y-66.847
X207.854Y-67.202
X207.861Y-76.392
X207.99Y-87.75
X208.01Y-87.33
X208.02Y-86.91
X208.069Y-84.275
X208.08Y-96.77
X208.177Y-78.263
X208.27Y-93.35
X208.303Y-90.865
X208.314Y-69.147
X208.374Y-78.88
X208.38Y-70.11
X208.38Y-90.21
X208.43Y-87.33
X208.43Y-87.74
X208.44Y-86.91
X208.6Y-66.81
X208.6Y-67.21
X208.63Y-66.41
X208.69Y-84.272
X208.74Y-92.69
X208.75Y-71.72
X208.75Y-72.12
X208.76Y-73.91
X208.79Y-94.28
X208.831Y-81.542
X208.9Y-83.902
X208.94Y-92.05
X208.98Y-82.18
X209.02Y-70.26
X209.04Y-67.24
X209.06Y-69.59
X209.07Y-94.03
X209.1Y-65.783
X209.111Y-84.263
X209.13Y-73.9
X209.15Y-72.12
X209.16Y-71.72
X209.23Y-76.27
X209.27Y-83.722
X209.47Y-82.65
X209.61Y-76.41
X209.96Y-76.41
X210.04Y-70.43
X210.05Y-69.62
X210.05Y-70.02
X210.16Y-90.47
X210.267Y-66.313
X210.267Y-66.72
X210.267Y-67.126
X210.33Y-82.48
X210.47Y-69.62
X210.707Y-89.325
X210.724Y-87.908
X210.85Y-88.52
X210.911Y-72.441
X210.97Y-82.47
X211.09Y-91.51
X211.14Y-86.94
X211.2Y-72.972
X211.207Y-90.867
X211.23Y-96.18
X211.28Y-70.99
X211.3Y-70.38
X211.33Y-92.52
X211.359Y-66.897
X211.359Y-67.304
X211.374Y-66.522
X211.421Y-65.692
X211.52Y-76.983
X211.658Y-86.571
X211.766Y-66.897
X211.766Y-67.304
X211.766Y-82.569
X211.78Y-66.522
X211.873Y-87.135
X211.883Y-90.926
X212.04Y-70.072
X212.07Y-93.97
X212.15Y-77.093
X212.172Y-92.475
X212.32Y-70.322
X212.338Y-86.617
X212.4Y-77.733
X212.4Y-78.132
X212.4Y-78.532
X212.44Y-82.33
X212.502Y-84.627
X212.528Y-95.701
X212.559Y-96.319
X212.7Y-93.983
X212.85Y-77.733
X212.85Y-78.132
X212.85Y-78.532
X212.89Y-83.59
X212.911Y-92.401
X212.92Y-86.92
X212.94Y-83.95
X213.0Y-63.6
X213.11Y-89.3
X213.15Y-83.32
X213.2Y-76.382
X213.24Y-69.39
X213.25Y-69.02
X213.28Y-73.312
X213.29Y-96.573
X213.34Y-93.72
X213.347Y-66.489
X213.38Y-86.14
X213.56Y-69.21
X213.57Y-83.852
X213.59Y-95.902
X213.65Y-76.852
X213.73Y-93.68
X213.73Y-77.722
X213.73Y-78.123
X213.73Y-78.522
X213.75Y-63.982
X213.87Y-73.17
X213.89Y-92.19
X213.91Y-94.03
X213.928Y-91.573
X213.99Y-83.4
X214.03Y-66.32
X214.09Y-77.722
X214.09Y-78.123
X214.1Y-78.522
X214.204Y-69.996
X214.21Y-95.992
X214.24Y-66.03
X214.31Y-83.24
X214.38Y-77.013
X214.44Y-72.892
X214.53Y-89.14
X214.57Y-66.172
X214.755Y-69.75
X214.9Y-77.63
X214.9Y-92.18
X214.92Y-91.812
X214.93Y-90.65
X215.125Y-69.271
X215.13Y-65.72
X215.271Y-67.812
X215.271Y-91.713
X215.271Y-92.12
X215.274Y-67.412
X215.29Y-77.63
X215.46Y-69.78
X215.54Y-90.74
X215.677Y-67.812
X215.677Y-91.713
X215.68Y-67.04
X215.68Y-77.62
X215.68Y-67.412
X215.74Y-65.682
X215.75Y-69.25
X215.82Y-75.72
X215.84Y-80.07
X215.92Y-79.69
X215.94Y-71.89
X215.95Y-63.63
X215.95Y-70.27
X216.08Y-91.03
X216.22Y-82.932
X216.25Y-80.06
X216.26Y-65.35
X216.27Y-64.72
X216.31Y-79.71
X216.32Y-93.87
X216.449Y-73.529
X216.47Y-80.672
X216.55Y-93.58
X216.68Y-80.04
X216.69Y-79.72
X216.69Y-93.94
X216.88Y-77.082
X216.9Y-83.79
X216.95Y-87.593
X216.962Y-86.989
X217.0Y-84.43
X217.043Y-73.425
X217.14Y-71.45
X217.24Y-65.793
X217.25Y-64.5
X217.4Y-90.862
X217.43Y-91.263
X217.6Y-93.18
X217.61Y-92.87
X217.62Y-65.79
X217.676Y-96.732
X217.8Y-90.862
X217.8Y-91.263
X217.81Y-70.11
X217.83Y-69.71
X217.85Y-72.532
X217.85Y-72.932
X217.87Y-94.01
X218.05Y-78.132
X218.05Y-78.542
X218.05Y-79.203
X218.05Y-79.593
X218.05Y-79.983
X218.13Y-69.95
X218.16Y-70.33
X218.28Y-96.72
X218.41Y-88.752
X218.446Y-90.875
X218.446Y-91.256
X218.47Y-89.4
X218.53Y-94.03
X218.65Y-67.88
X218.827Y-90.875
X218.827Y-91.256
X218.89Y-87.78
X219.01Y-76.2
X219.106Y-77.531
X219.168Y-78.132
X219.17Y-89.89
X219.18Y-66.382
X219.19Y-66.733
X219.208Y-90.875
X219.233Y-91.256
X219.25Y-78.73
X219.31Y-76.873
X219.4Y-82.54
X219.42Y-73.74
X219.43Y-83.15
X219.5Y-67.93
X219.5Y-83.82
X219.509Y-84.557
X219.51Y-88.87
X219.57Y-76.632
X219.6Y-87.6
X219.6Y-87.96
X219.79Y-74.86
X219.81Y-90.918
X219.83Y-89.56
X219.85Y-71.51
X219.884Y-77.162
X219.903Y-85.014
X220.0Y-74.55
X220.05Y-88.53
X220.13Y-73.802
X220.156Y-83.259
X220.19Y-80.6
X220.19Y-94.02
X220.2Y-79.78
X220.2Y-80.19
X220.29Y-75.42
X220.32Y-76.67
X220.36Y-71.18
X220.55Y-94.01
X220.6Y-79.78
X220.6Y-80.19
X220.6Y-80.6
X220.72Y-77.19
X220.8Y-87.81
X220.86Y-93.96
X220.9Y-67.95
X220.92Y-64.65
X220.95Y-65.682
X221.0Y-79.79
X221.01Y-80.19
X221.01Y-80.61
X221.1Y-66.84
X221.1Y-66.483
X221.184Y-71.229
X221.3Y-65.682
X221.31Y-85.82
X221.333Y-85.061
X221.49Y-74.83
X221.526Y-93.968
X221.54Y-92.94
X221.615Y-91.147
X221.62Y-74.5
X221.881Y-84.808
X221.9Y-93.24
X221.94Y-92.85
X222.08Y-63.6
X222.09Y-87.61
X222.09Y-88.01
X222.174Y-90.918
X222.18Y-84.162
X222.19Y-83.172
X222.2Y-82.772
X222.24Y-67.95
X222.33Y-92.86
X222.34Y-64.44
X222.41Y-66.403
X222.44Y-66.832
X222.48Y-84.701
X222.765Y-91.038
X222.8Y-63.59
X222.843Y-67.991
X222.88Y-81.192
X222.93Y-76.93
X222.967Y-84.337
X223.043Y-93.948
X223.13Y-82.33
X223.14Y-76.64
X223.18Y-75.39
X223.24Y-73.45
X223.3Y-80.172
X223.309Y-83.204
X223.328Y-83.853
X223.399Y-94.05
X223.44Y-73.78
X223.48Y-76.03
X223.55Y-90.932
X223.63Y-73.43
X223.69Y-94.38
X223.8Y-82.84
X223.84Y-73.77
X223.88Y-80.85
X224.02Y-73.43
X224.15Y-91.006
X224.2Y-77.153
X224.27Y-69.462
X224.468Y-70.033
X224.515Y-63.988
X224.57Y-64.59
X224.639Y-70.81
X224.735Y-90.859
X224.77Y-67.82
X224.91Y-95.65
X224.93Y-74.623
X224.99Y-76.54
X225.09Y-84.98
X225.23Y-85.68
X225.233Y-82.808
X225.253Y-77.083
X225.27Y-94.38
X225.28Y-95.64
X225.29Y-93.98
X225.297Y-76.02
X225.39Y-75.05
X225.44Y-80.73
X225.47Y-96.77
X225.5Y-70.13
X225.57Y-81.1
X225.6Y-66.82
X225.64Y-95.62
X225.68Y-94.41
X225.7Y-93.99
X225.7Y-96.26
X225.71Y-72.81
X225.75Y-66.49
X225.82Y-85.29
X225.85Y-72.112
X225.863Y-77.159
X225.88Y-81.814
X225.94Y-81.19
X225.99Y-79.48
X226.0Y-64.1
X226.04Y-86.26
X226.091Y-84.732
X226.11Y-69.31
X226.17Y-63.72
X226.21Y-76.61
X226.21Y-82.32
X226.24Y-87.81
X226.24Y-88.414
X226.4Y-80.06
X226.4Y-86.84
X226.44Y-74.64
X226.44Y-71.953
X226.46Y-75.0
X226.49Y-69.82
X226.498Y-80.958
X226.5Y-70.51
X226.5Y-81.632
X226.581Y-64.422
X226.6Y-74.032
X226.65Y-77.17
X226.67Y-73.07
X227.1Y-81.895
X227.57Y-85.16
X227.581Y-90.302
X227.62Y-90.652
X227.654Y-96.666
X227.715Y-83.919
X227.805Y-87.001
X227.844Y-80.004
X227.844Y-80.41
X227.869Y-81.858
X228.0Y-86.25
X228.14Y-78.06
X228.16Y-79.01
X228.22Y-72.23
X228.22Y-73.74
X228.25Y-76.45
X228.25Y-78.66
X228.25Y-80.004
X228.25Y-80.41
X228.265Y-76.081
X228.32Y-77.85
X228.32Y-84.32
X228.42Y-75.4
X228.42Y-85.34
X228.5Y-73.98
X228.516Y-81.787
X228.54Y-78.932
X228.55Y-78.04
X228.56Y-73.23
X228.56Y-73.62
X228.64Y-76.091
X228.64Y-76.46
X228.66Y-72.17
X228.685Y-88.876
X228.797Y-75.366
X228.9Y-89.44
X228.97Y-73.26
X229.03Y-72.18
X229.04Y-76.091
X229.05Y-90.22
X229.12Y-73.88
X229.18Y-75.39
X229.19Y-77.2
X229.2Y-78.003
X229.287Y-88.915
X229.343Y-70.047
X229.343Y-70.453
X229.343Y-70.86
X229.71Y-88.32
X229.72Y-73.68
X229.749Y-70.047
X229.749Y-70.453
X229.749Y-70.86
X229.994Y-69.495
X230.0Y-79.832
X230.0Y-80.233
X230.2Y-96.68
X230.345Y-70.759
X230.39Y-89.03
X230.47Y-64.92
X230.62Y-83.66
X230.629Y-83.05
X230.641Y-82.442
X230.65Y-81.212
X230.71Y-63.6
X230.71Y-64.03
X230.82Y-91.7
X230.85Y-68.96
X230.86Y-91.33
X231.03Y-70.41
X231.14Y-95.43
X231.18Y-64.9
X231.35Y-81.51
X231.354Y-81.098
X231.5Y-77.3
X231.5Y-77.7
X231.55Y-95.42
X231.65Y-70.98
X231.82Y-65.2
X231.83Y-72.49
X231.9Y-77.3
X231.9Y-77.7
X231.95Y-95.41
X232.03Y-70.97
X232.03Y-88.86
X232.04Y-78.95
X232.05Y-72.76
X232.05Y-91.16
X232.06Y-90.64
T2
X199.15Y-66.082
X199.15Y-67.332
X199.15Y-68.582
X199.525Y-84.382
X199.525Y-85.632
X199.525Y-86.882
X201.2Y-96.457
X202.45Y-96.457
X203.7Y-96.457
X208.9Y-64.233
X210.15Y-64.233
X211.4Y-64.233
X219.575Y-96.082
X220.825Y-96.082
X222.075Y-96.082
X227.22Y-63.832
X228.47Y-63.832
X229.72Y-63.832
X231.451Y-73.547
X231.451Y-74.797
X231.451Y-76.047
X231.756Y-92.089
X231.756Y-93.339
X231.756Y-94.589
M30
